<?xml version="1.0" encoding="utf-8"?>
<!-- Generator: Adobe Illustrator 27.5.0, SVG Export Plug-In . SVG Version: 6.00 Build 0)  -->
<svg version="1.1" id="Layer_1" xmlns="http://www.w3.org/2000/svg" xmlns:xlink="http://www.w3.org/1999/xlink" x="0px" y="0px"
	 viewBox="0 0 3873 3873" style="enable-background:new 0 0 3873 3873;" xml:space="preserve">
<title>2402 - HTML File</title>
<g id="_274460976">
	<path d="M3411.6,3699H250.4c-33.4,0-60.5-27.1-60.5-60.5v-3404c0-33.4,27.1-60.5,60.5-60.5h2548.5c33.4,0,60.5,27.1,60.5,60.5
		v552.2h552.2c33.4,0,60.5,27.1,60.5,60.5V1799c0,33.4-27.1,60.5-60.5,60.5c-8.9,0-17.7-2-25.8-5.8c-40.2-19-84.1-28.9-128.6-28.8
		c-33.4,0-60.5-27.1-60.5-60.5s27.1-60.5,60.5-60.5c31.6,0,63.1,3.5,93.9,10.5V907.7h-552.2c-33.4,0-60.5-27.1-60.5-60.5V295H310.9
		v3283H3351v-136.7c-30.9,7-62.4,10.5-94,10.5c-33.4,0-60.5-27.1-60.5-60.5s27.1-60.5,60.5-60.5c44.5,0.1,88.4-9.8,128.6-28.8
		c30.2-14.3,66.3-1.5,80.6,28.7c3.9,8.1,5.9,17,5.8,26v281.8C3472.1,3671.9,3445,3699,3411.6,3699z"/>
</g>
<g id="_274461048">
	<path d="M3411.6,907.7c-16.1,0-31.5-6.4-42.8-17.7L2756,277.3c-23.6-23.6-23.7-61.9,0-85.6s61.9-23.7,85.6,0l613.1,612.7
		c23.6,23.6,23.7,61.9,0,85.6C3443.3,901.4,3427.7,907.8,3411.6,907.7z"/>
</g>
<g id="_274461360">
	<path d="M3257.2,3451.8H1157.4c-235.2-0.3-425.7-190.9-426-426v-895.9c0.3-235.1,190.8-425.7,426-426h2099.8
		c235.1,0.3,425.7,190.8,426,426v895.9C3682.9,3260.9,3492.3,3451.5,3257.2,3451.8z M1157.4,1825
		c-168.3,0.2-304.7,136.6-304.9,304.9v895.9c0.2,168.3,136.6,304.8,304.9,305h2099.8c168.3-0.2,304.8-136.7,304.9-305v-895.9
		c-0.2-168.3-136.6-304.7-304.9-304.9L1157.4,1825z"/>
</g>
<g id="_274461192">
	<path d="M655.7,1060c-33.4,0-60.5-27-60.6-60.4c0-19.1,8.9-37,24.2-48.5l412-309c26.7-20.1,64.7-14.6,84.7,12.1
		c20.1,26.7,14.6,64.7-12.1,84.7l0,0l-412,309C681.5,1055.7,668.8,1060,655.7,1060z"/>
</g>
<g id="_274461264">
	<path d="M1067.6,1369.2c-13.1,0-25.8-4.2-36.3-12.1l-412-309.2c-26.7-20.1-32.2-58-12.1-84.7c20.1-26.7,58-32.2,84.7-12.1
		l412,309.1c26.7,20.1,32.2,58,12.1,84.7C1104.6,1360.1,1086.7,1369.1,1067.6,1369.2L1067.6,1369.2z"/>
</g>
<g id="_274460208">
	<path d="M2393.4,1060c-13.1,0-25.8-4.3-36.2-12.1l-412.1-309c-26.7-20.1-32.2-58-12.1-84.7s58-32.2,84.7-12.1l412.1,309
		c26.7,20.1,32.2,58,12.1,84.7C2430.4,1051.1,2412.5,1060,2393.4,1060L2393.4,1060z"/>
</g>
<g id="_274460472">
	<path d="M1981.4,1369.2c-33.4,0-60.5-27-60.6-60.4c0-19.1,8.9-37,24.2-48.5l412.1-309.1c26.7-20.1,64.7-14.6,84.7,12.1
		c20.1,26.7,14.6,64.7-12.1,84.7l-412.1,309.1C2007.2,1364.9,1994.5,1369.1,1981.4,1369.2z"/>
</g>
<g id="_274460448">
	<path d="M1677.6,1325.1c-21.7,0-41.7-11.5-52.5-30.3L1319,764.7c-16.7-29-6.8-66,22.2-82.7c29-16.7,66-6.8,82.7,22.2l0,0
		l306.1,530.1c16.7,28.9,6.8,66-22.2,82.7C1698.7,1322.3,1688.2,1325,1677.6,1325.1L1677.6,1325.1z"/>
</g>
<g id="_261889832">
	<path d="M1079.2,2912.3c-33.4,0-60.5-27.1-60.5-60.5v-548c0-33.4,27.1-60.5,60.5-60.5s60.5,27.1,60.5,60.5v548
		C1139.7,2885.2,1112.6,2912.3,1079.2,2912.3z"/>
</g>
<g id="_261890384">
	<path d="M1434.8,2912.3c-33.4,0-60.5-27.1-60.5-60.5v-548c0-33.4,27.1-60.5,60.5-60.5s60.5,27.1,60.5,60.5v548
		C1495.3,2885.2,1468.2,2912.3,1434.8,2912.3z"/>
</g>
<g id="_262992944">
	<path d="M1434.8,2638.4h-355.5c-33.4,0-60.5-27.1-60.5-60.5s27.1-60.5,60.5-60.5h355.5c33.4,0,60.5,27.1,60.5,60.5
		S1468.2,2638.4,1434.8,2638.4z"/>
</g>
<g id="_263005976">
	<path d="M2527.1,2912.3L2527.1,2912.3c-24.3,0-46.3-14.6-55.7-37.1l-113.5-271v247.6c0,33.4-27.1,60.5-60.5,60.5
		s-60.5-27.1-60.5-60.5v-548c0-33.4,27.2-60.5,60.6-60.4c24.3,0,46.2,14.6,55.7,37l174.4,415.5l175.1-415.6
		c12.9-30.8,48.4-45.4,79.2-32.5c22.6,9.4,37.2,31.5,37.2,56v548c0,33.4-27.1,60.5-60.5,60.5s-60.5-27.1-60.5-60.5v-248.6
		l-114.8,272.3C2573.7,2897.9,2551.6,2912.5,2527.1,2912.3z"/>
</g>
<g id="_263002160">
	<path d="M2123.3,2364.3h-461.9c-33.4,0-60.5-27.1-60.5-60.5s27.1-60.5,60.5-60.5h461.9c33.4,0,60.5,27.1,60.5,60.5
		S2156.7,2364.3,2123.3,2364.3z"/>
</g>
<g id="_263002760">
	<path d="M1892.8,2912.3c-33.4,0-60.5-27.1-60.5-60.5v-548c0-33.4,27.2-60.5,60.6-60.4c33.4,0,60.4,27.1,60.4,60.4v548
		C1953.4,2885.2,1926.3,2912.3,1892.8,2912.3z"/>
</g>
<g id="_263005088">
	<path d="M3335.3,2912.3h-344.7c-33.4,0-60.5-27.1-60.5-60.5v-548c0-33.4,27.1-60.5,60.5-60.5s60.5,27.1,60.5,60.5v487.5h284.2
		c33.4,0,60.5,27.1,60.5,60.5S3368.7,2912.3,3335.3,2912.3z"/>
</g>
</svg>
