<?xml version="1.0" encoding="utf-8"?>
<!-- Generator: Adobe Illustrator 27.5.0, SVG Export Plug-In . SVG Version: 6.00 Build 0)  -->
<svg version="1.1" id="Layer_1" xmlns="http://www.w3.org/2000/svg" xmlns:xlink="http://www.w3.org/1999/xlink" x="0px" y="0px"
	 viewBox="0 0 1920 1080" style="enable-background:new 0 0 1920 1080;" xml:space="preserve">
<g>
	<path style="fill:none;stroke:#E6E6E6;stroke-width:0.9998;stroke-miterlimit:2.6131;" d="M-1119.158-1836.478h4157.314
		c164.076,0,298.32,134.244,298.32,298.32v4157.314c0,164.076-134.244,298.32-298.32,298.32h-4157.314
		c-164.076,0-298.32-134.244-298.32-298.32v-4157.314C-1417.477-1702.234-1283.234-1836.478-1119.158-1836.478L-1119.158-1836.478z"
		/>
	<path style="fill-rule:evenodd;clip-rule:evenodd;" d="M1882.986,377.936v276.899h276.886c23.066,0,41.915,18.849,41.915,41.915
		v99.941c0,23.066-18.848,41.915-41.915,41.915h-276.886v276.873c0,23.053-18.835,41.902-41.915,41.902h-99.927
		c-23.079,0-41.915-18.849-41.915-41.902V838.605h-276.886c-23.066,0-41.915-18.848-41.915-41.915v-99.941
		c0-23.066,18.849-41.915,41.915-41.915h276.886V377.936c0-23.066,18.835-41.915,41.915-41.915h99.927
		C1864.15,336.021,1882.986,354.87,1882.986,377.936L1882.986,377.936z M1088.78,1240.017H-126
		c-20.198,0-36.571-16.373-36.571-36.557v-2493.782c0-20.119,16.465-36.583,36.583-36.583h1301.439v370.33
		c0,107.157,87.693,194.838,194.851,194.838h370.316v654.878c0,15.351,13.256,27.087,28.529,25.673
		c23.04-2.122,46.237-3.418,69.67-3.418c19.7,0,39.282,0.799,58.733,2.24c15.063,1.126,27.9-10.427,27.9-25.542v-682.28
		c0-36.767-14.604-72.041-40.605-98.041l-582.929-582.916c-25.987-25.987-61.235-40.592-97.989-40.592H-126
		c-122.286,0-221.402,99.128-221.402,221.401v2493.795c0,121.776,99.626,221.414,221.402,221.414h1397.017
		c11.042,0,15.22-14.002,6.169-20.315c-38.797-27.048-75.617-57.423-109.764-91.571c-19.726-19.713-37.867-40.408-55.04-61.615
		C1106.594,1244.208,1097.989,1240.017,1088.78,1240.017L1088.78,1240.017z M2471.167,746.707L2471.167,746.707
		c0,375.595-304.458,680.053-680.066,680.053c-375.582,0-680.054-304.458-680.054-680.053s304.471-680.066,680.054-680.066
		C2166.709,66.641,2471.167,371.112,2471.167,746.707L2471.167,746.707z"/>
	<path style="fill:#808080;" d="M251.582,2579.105c0.728,2.087,1.165,3.738,1.214,5.048c0.048,1.262-0.34,2.233-1.068,2.913
		c-0.777,0.631-2.039,1.068-3.786,1.262c-1.748,0.194-4.078,0.291-7.039,0.291c-2.913,0-5.291-0.049-7.039-0.194
		c-1.748-0.146-3.058-0.388-3.981-0.728c-0.922-0.34-1.553-0.777-1.99-1.359c-0.437-0.582-0.825-1.262-1.214-2.136l-15.777-44.806
		h-76.505l-15.097,44.224c-0.291,0.874-0.631,1.602-1.116,2.233c-0.485,0.631-1.165,1.116-2.087,1.553
		c-0.874,0.437-2.184,0.728-3.835,0.923c-1.651,0.194-3.787,0.291-6.457,0.291c-2.767,0-5-0.097-6.747-0.34
		c-1.748-0.243-3.01-0.68-3.689-1.359c-0.728-0.68-1.068-1.651-1.02-2.913c0.049-1.311,0.437-2.961,1.214-5.049l61.699-171.021
		c0.388-1.068,0.922-1.942,1.505-2.573c0.631-0.68,1.505-1.214,2.719-1.553c1.165-0.388,2.67-0.68,4.563-0.825
		c1.845-0.145,4.175-0.194,7.039-0.194c3.01,0,5.534,0.049,7.524,0.194c1.99,0.146,3.592,0.437,4.806,0.825
		c1.262,0.34,2.185,0.922,2.864,1.602c0.68,0.728,1.214,1.602,1.553,2.621L251.582,2579.105L251.582,2579.105z M172.358,2428.132
		h-0.146l-31.699,91.749h63.981L172.358,2428.132L172.358,2428.132z"/>
	<path style="fill:#808080;" d="M389.204,2584.202c0,0.777-0.146,1.407-0.485,1.99c-0.34,0.583-0.923,1.019-1.699,1.359
		c-0.825,0.34-1.893,0.583-3.204,0.777c-1.359,0.194-2.961,0.291-4.855,0.291c-1.99,0-3.641-0.097-4.951-0.291
		c-1.359-0.194-2.427-0.437-3.301-0.777c-0.825-0.34-1.456-0.777-1.844-1.359c-0.34-0.583-0.534-1.262-0.534-1.99v-17.039
		c-6.748,7.33-13.738,13.01-20.971,17.087c-7.282,4.078-15.194,6.117-23.835,6.117c-9.369,0-17.379-1.844-23.981-5.486
		c-6.651-3.641-12.039-8.593-16.165-14.806c-4.078-6.214-7.088-13.495-8.981-21.893c-1.893-8.398-2.864-17.233-2.864-26.505
		c0-11.02,1.165-20.971,3.544-29.806c2.379-8.883,5.874-16.457,10.534-22.719c4.612-6.262,10.388-11.068,17.281-14.417
		c6.845-3.35,14.757-5.049,23.786-5.049c7.476,0,14.321,1.651,20.534,4.903c6.214,3.301,12.33,8.107,18.398,14.466v-74.224
		c0-0.68,0.146-1.311,0.485-1.942c0.34-0.631,0.971-1.068,1.942-1.408c0.922-0.34,2.136-0.631,3.592-0.874
		c1.505-0.243,3.35-0.34,5.631-0.34c2.378,0,4.32,0.097,5.825,0.34c1.505,0.242,2.719,0.534,3.543,0.874
		c0.874,0.34,1.505,0.777,1.942,1.408c0.437,0.631,0.631,1.262,0.631,1.942V2584.202L389.204,2584.202z M365.611,2494.055
		c-6.311-7.913-12.427-13.932-18.35-18.058c-5.922-4.126-12.087-6.214-18.495-6.214c-5.971,0-11.019,1.408-15.194,4.272
		s-7.524,6.602-10.146,11.262c-2.573,4.612-4.466,9.903-5.631,15.777c-1.213,5.874-1.796,11.845-1.796,17.913
		c0,6.456,0.485,12.767,1.505,18.932c0.971,6.165,2.719,11.651,5.146,16.457c2.476,4.806,5.728,8.641,9.806,11.553
		c4.029,2.864,9.175,4.32,15.292,4.32c3.107,0,6.117-0.437,9.029-1.262c2.864-0.874,5.825-2.281,8.835-4.272
		c3.01-1.99,6.214-4.563,9.515-7.767c3.301-3.156,6.796-7.039,10.486-11.699V2494.055L365.611,2494.055z"/>
	<path style="fill:#808080;" d="M542.215,2584.202c0,0.777-0.146,1.407-0.486,1.99c-0.34,0.583-0.923,1.019-1.699,1.359
		c-0.825,0.34-1.893,0.583-3.204,0.777c-1.359,0.194-2.961,0.291-4.854,0.291c-1.99,0-3.641-0.097-4.952-0.291
		c-1.359-0.194-2.427-0.437-3.301-0.777c-0.825-0.34-1.456-0.777-1.845-1.359c-0.34-0.583-0.534-1.262-0.534-1.99v-17.039
		c-6.748,7.33-13.738,13.01-20.971,17.087c-7.282,4.078-15.194,6.117-23.835,6.117c-9.369,0-17.379-1.844-23.981-5.486
		c-6.651-3.641-12.039-8.593-16.165-14.806c-4.078-6.214-7.087-13.495-8.981-21.893c-1.893-8.398-2.864-17.233-2.864-26.505
		c0-11.02,1.165-20.971,3.544-29.806c2.379-8.883,5.874-16.457,10.534-22.719c4.612-6.262,10.388-11.068,17.281-14.417
		c6.845-3.35,14.757-5.049,23.787-5.049c7.476,0,14.321,1.651,20.534,4.903c6.214,3.301,12.33,8.107,18.398,14.466v-74.224
		c0-0.68,0.146-1.311,0.485-1.942c0.34-0.631,0.971-1.068,1.942-1.408c0.922-0.34,2.136-0.631,3.592-0.874
		c1.505-0.243,3.35-0.34,5.632-0.34c2.379,0,4.32,0.097,5.825,0.34c1.505,0.242,2.719,0.534,3.544,0.874
		c0.874,0.34,1.505,0.777,1.942,1.408c0.437,0.631,0.631,1.262,0.631,1.942V2584.202L542.215,2584.202z M518.622,2494.055
		c-6.311-7.913-12.427-13.932-18.35-18.058c-5.922-4.126-12.087-6.214-18.495-6.214c-5.971,0-11.019,1.408-15.194,4.272
		s-7.524,6.602-10.146,11.262c-2.573,4.612-4.466,9.903-5.631,15.777c-1.214,5.874-1.796,11.845-1.796,17.913
		c0,6.456,0.485,12.767,1.505,18.932c0.971,6.165,2.719,11.651,5.146,16.457c2.476,4.806,5.728,8.641,9.806,11.553
		c4.029,2.864,9.175,4.32,15.292,4.32c3.107,0,6.116-0.437,9.029-1.262c2.864-0.874,5.825-2.281,8.835-4.272
		c3.01-1.99,6.214-4.563,9.515-7.767c3.301-3.156,6.796-7.039,10.486-11.699V2494.055L518.622,2494.055z"/>
	<path style="fill:#808080;" d="M761.051,2584.202c0,0.777-0.146,1.407-0.486,1.99c-0.34,0.583-0.923,1.019-1.699,1.359
		c-0.825,0.34-1.893,0.583-3.204,0.777c-1.359,0.194-2.961,0.291-4.855,0.291c-1.99,0-3.641-0.097-4.951-0.291
		c-1.359-0.194-2.427-0.437-3.301-0.777c-0.825-0.34-1.456-0.777-1.845-1.359c-0.34-0.583-0.534-1.262-0.534-1.99v-17.039
		c-6.748,7.33-13.738,13.01-20.971,17.087c-7.282,4.078-15.194,6.117-23.835,6.117c-9.369,0-17.379-1.844-23.981-5.486
		c-6.651-3.641-12.039-8.593-16.165-14.806c-4.078-6.214-7.087-13.495-8.981-21.893c-1.893-8.398-2.864-17.233-2.864-26.505
		c0-11.02,1.165-20.971,3.544-29.806c2.379-8.883,5.874-16.457,10.534-22.719c4.612-6.262,10.388-11.068,17.281-14.417
		c6.845-3.35,14.758-5.049,23.787-5.049c7.476,0,14.321,1.651,20.534,4.903c6.214,3.301,12.33,8.107,18.398,14.466v-74.224
		c0-0.68,0.146-1.311,0.485-1.942c0.34-0.631,0.971-1.068,1.942-1.408c0.922-0.34,2.136-0.631,3.592-0.874
		c1.505-0.243,3.35-0.34,5.631-0.34c2.379,0,4.32,0.097,5.825,0.34c1.505,0.242,2.719,0.534,3.544,0.874
		c0.874,0.34,1.505,0.777,1.942,1.408c0.437,0.631,0.631,1.262,0.631,1.942V2584.202L761.051,2584.202z M737.459,2494.055
		c-6.311-7.913-12.428-13.932-18.35-18.058s-12.087-6.214-18.495-6.214c-5.971,0-11.02,1.408-15.194,4.272
		c-4.175,2.864-7.524,6.602-10.146,11.262c-2.573,4.612-4.466,9.903-5.631,15.777c-1.213,5.874-1.796,11.845-1.796,17.913
		c0,6.456,0.485,12.767,1.505,18.932c0.971,6.165,2.719,11.651,5.146,16.457c2.475,4.806,5.728,8.641,9.806,11.553
		c4.029,2.864,9.175,4.32,15.292,4.32c3.106,0,6.116-0.437,9.029-1.262c2.864-0.874,5.825-2.281,8.835-4.272
		c3.01-1.99,6.213-4.563,9.515-7.767c3.301-3.156,6.796-7.039,10.486-11.699V2494.055L737.459,2494.055z"/>
	<path style="fill:#808080;" d="M923.382,2518.667c0,10.437-1.359,20.049-4.126,28.835c-2.718,8.738-6.845,16.311-12.281,22.67
		c-5.437,6.359-12.282,11.311-20.437,14.854c-8.204,3.543-17.719,5.34-28.495,5.34c-10.534,0-19.709-1.553-27.525-4.709
		c-7.816-3.107-14.32-7.67-19.515-13.641s-9.078-13.252-11.651-21.748c-2.573-8.544-3.835-18.204-3.835-29.029
		c0-10.437,1.359-20.049,4.029-28.787c2.718-8.786,6.796-16.359,12.233-22.719c5.437-6.359,12.233-11.262,20.389-14.806
		c8.156-3.495,17.67-5.243,28.544-5.243c10.534,0,19.709,1.553,27.525,4.709c7.816,3.107,14.321,7.67,19.515,13.641
		c5.194,5.971,9.126,13.204,11.747,21.748C922.072,2498.327,923.382,2507.939,923.382,2518.667L923.382,2518.667z M898.916,2520.172
		c0-6.942-0.631-13.495-1.942-19.66c-1.262-6.165-3.398-11.553-6.359-16.214c-2.913-4.66-6.942-8.35-11.99-11.02
		c-5-2.719-11.311-4.078-18.835-4.078c-6.942,0-12.913,1.214-17.913,3.689c-5,2.476-9.078,5.971-12.33,10.486
		s-5.631,9.854-7.185,16.02c-1.602,6.165-2.379,12.913-2.379,20.194c0,7.039,0.631,13.641,1.942,19.806
		c1.262,6.165,3.398,11.553,6.408,16.165c3.01,4.563,7.039,8.252,12.039,10.922c5.049,2.718,11.359,4.078,18.884,4.078
		c6.845,0,12.767-1.214,17.815-3.69c5.049-2.476,9.175-5.922,12.427-10.388c3.252-4.466,5.631-9.806,7.136-15.971
		C898.14,2534.347,898.916,2527.551,898.916,2520.172L898.916,2520.172z"/>
	<path style="fill:#808080;" d="M1050.18,2564.493c0,1.602-0.049,3.01-0.146,4.175c-0.097,1.214-0.242,2.184-0.486,3.01
		c-0.242,0.825-0.534,1.505-0.874,2.136c-0.34,0.631-1.068,1.553-2.281,2.719c-1.165,1.214-3.204,2.67-6.019,4.466
		c-2.864,1.748-6.068,3.349-9.612,4.709c-3.592,1.408-7.427,2.524-11.602,3.35c-4.175,0.874-8.496,1.311-12.961,1.311
		c-9.223,0-17.379-1.505-24.467-4.563c-7.136-3.01-13.107-7.427-17.864-13.252c-4.806-5.825-8.447-13.01-10.971-21.457
		c-2.524-8.495-3.786-18.252-3.786-29.369c0-12.573,1.553-23.398,4.612-32.476c3.106-9.029,7.33-16.456,12.67-22.233
		c5.388-5.777,11.699-10.049,18.932-12.864c7.281-2.767,15.146-4.175,23.592-4.175c4.078,0,8.01,0.388,11.845,1.165
		c3.883,0.728,7.379,1.748,10.631,2.961c3.204,1.262,6.116,2.67,8.592,4.321c2.524,1.602,4.369,3.01,5.486,4.126
		c1.165,1.165,1.942,2.087,2.379,2.719c0.388,0.679,0.777,1.456,1.068,2.378c0.243,0.874,0.437,1.893,0.534,3.058
		c0.097,1.116,0.146,2.573,0.146,4.272c0,3.689-0.437,6.262-1.263,7.767c-0.874,1.456-1.893,2.185-3.155,2.185
		c-1.408,0-3.058-0.777-4.903-2.379c-1.845-1.553-4.175-3.301-7.039-5.194c-2.864-1.893-6.311-3.641-10.34-5.194
		c-4.029-1.602-8.787-2.378-14.272-2.378c-11.31,0-20,4.32-26.019,13.01c-6.02,8.641-9.029,21.214-9.029,37.67
		c0,8.204,0.777,15.437,2.33,21.65c1.603,6.165,3.884,11.359,6.942,15.534c3.01,4.126,6.748,7.233,11.165,9.272
		c4.417,2.039,9.466,3.058,15.146,3.058c5.437,0,10.194-0.874,14.272-2.573c4.078-1.699,7.573-3.593,10.583-5.679
		c3.01-2.039,5.534-3.884,7.573-5.534c2.039-1.699,3.593-2.524,4.758-2.524c0.631,0,1.213,0.194,1.699,0.582
		c0.485,0.388,0.874,1.019,1.214,1.893c0.34,0.922,0.583,2.039,0.728,3.446C1050.131,2560.949,1050.18,2562.599,1050.18,2564.493
		L1050.18,2564.493z"/>
	<path style="fill:#808080;" d="M1190.811,2584.202c0,0.777-0.146,1.407-0.485,1.942c-0.34,0.485-0.922,0.971-1.796,1.359
		c-0.825,0.34-1.942,0.631-3.35,0.825c-1.359,0.194-3.058,0.291-5.048,0.291c-2.136,0-3.932-0.097-5.291-0.291
		c-1.408-0.194-2.476-0.485-3.301-0.825c-0.777-0.388-1.359-0.874-1.602-1.359c-0.291-0.534-0.437-1.165-0.437-1.942v-16.942
		c-7.33,8.058-14.515,13.884-21.651,17.573c-7.087,3.69-14.321,5.534-21.602,5.534c-8.544,0-15.729-1.408-21.554-4.272
		c-5.825-2.816-10.583-6.699-14.175-11.602c-3.592-4.854-6.165-10.534-7.768-17.039c-1.553-6.505-2.33-14.418-2.33-23.689v-77.622
		c0-0.777,0.146-1.408,0.486-1.942c0.339-0.486,0.971-0.971,1.942-1.407c0.922-0.437,2.184-0.728,3.689-0.874
		c1.505-0.146,3.398-0.194,5.68-0.194c2.281,0,4.174,0.048,5.68,0.194c1.505,0.146,2.718,0.437,3.641,0.874
		c0.874,0.437,1.505,0.922,1.893,1.407c0.388,0.534,0.583,1.165,0.583,1.942v74.564c0,7.476,0.534,13.495,1.651,18.01
		c1.068,4.514,2.719,8.349,4.951,11.505c2.233,3.204,5.097,5.679,8.496,7.427c3.398,1.748,7.378,2.621,11.942,2.621
		c5.874,0,11.748-2.087,17.573-6.262c5.874-4.175,12.039-10.291,18.592-18.349v-89.515c0-0.777,0.146-1.408,0.485-1.942
		c0.34-0.486,0.971-0.971,1.942-1.407c0.922-0.437,2.136-0.728,3.592-0.874c1.505-0.146,3.398-0.194,5.777-0.194
		c2.282,0,4.175,0.048,5.68,0.194s2.718,0.437,3.544,0.874c0.874,0.437,1.505,0.922,1.942,1.407
		c0.437,0.534,0.631,1.165,0.631,1.942V2584.202L1190.811,2584.202z"/>
	<path style="fill:#808080;" d="M1424.211,2584.202c0,0.777-0.194,1.407-0.583,1.942c-0.389,0.485-0.971,0.971-1.844,1.359
		c-0.825,0.34-2.039,0.631-3.544,0.825s-3.398,0.291-5.679,0.291c-2.379,0-4.321-0.097-5.826-0.291
		c-1.505-0.194-2.719-0.485-3.641-0.825c-0.874-0.388-1.505-0.874-1.893-1.359c-0.388-0.534-0.583-1.165-0.583-1.942v-77.816
		c0-5.437-0.485-10.389-1.408-14.806c-0.97-4.466-2.476-8.301-4.563-11.553c-2.087-3.204-4.708-5.68-7.912-7.379
		s-6.99-2.573-11.359-2.573c-5.388,0-10.825,2.087-16.213,6.262c-5.438,4.175-11.457,10.291-17.961,18.35v89.515
		c0,0.777-0.194,1.407-0.583,1.942c-0.388,0.485-1.02,0.971-1.942,1.359c-0.874,0.34-2.087,0.631-3.641,0.825
		c-1.505,0.194-3.398,0.291-5.68,0.291c-2.233,0-4.078-0.097-5.679-0.291c-1.553-0.194-2.816-0.485-3.689-0.825
		c-0.922-0.388-1.553-0.874-1.893-1.359c-0.34-0.534-0.486-1.165-0.486-1.942v-77.816c0-5.437-0.534-10.389-1.553-14.806
		c-1.068-4.466-2.621-8.301-4.708-11.553c-2.088-3.204-4.709-5.68-7.864-7.379c-3.204-1.699-6.942-2.573-11.311-2.573
		c-5.388,0-10.874,2.087-16.359,6.262c-5.486,4.175-11.457,10.291-17.913,18.35v89.515c0,0.777-0.194,1.407-0.583,1.942
		c-0.389,0.485-0.971,0.971-1.844,1.359c-0.874,0.34-2.039,0.631-3.593,0.825c-1.505,0.194-3.447,0.291-5.825,0.291
		c-2.33,0-4.223-0.097-5.728-0.291c-1.553-0.194-2.767-0.485-3.641-0.825c-0.922-0.388-1.554-0.874-1.894-1.359
		c-0.34-0.534-0.485-1.165-0.485-1.942v-128.059c0-0.777,0.145-1.408,0.437-1.942c0.291-0.486,0.825-0.971,1.699-1.407
		c0.873-0.437,1.942-0.728,3.301-0.874c1.311-0.146,3.107-0.194,5.292-0.194c2.087,0,3.835,0.048,5.194,0.194
		c1.407,0.146,2.475,0.437,3.252,0.874c0.728,0.437,1.31,0.922,1.65,1.407c0.292,0.534,0.486,1.165,0.486,1.942v16.942
		c7.185-8.107,14.223-14.029,21.02-17.767c6.748-3.738,13.641-5.631,20.534-5.631c5.34,0,10.097,0.631,14.32,1.845
		c4.224,1.262,7.961,2.961,11.166,5.194c3.252,2.233,6.019,4.903,8.252,8.01c2.281,3.058,4.175,6.505,5.728,10.34
		c4.272-4.66,8.301-8.592,12.136-11.845c3.835-3.252,7.524-5.825,11.068-7.864c3.544-1.99,6.99-3.447,10.34-4.321
		c3.398-0.922,6.747-1.359,10.146-1.359c8.253,0,15.146,1.456,20.729,4.321c5.583,2.913,10.097,6.796,13.592,11.602
		c3.447,4.854,5.874,10.534,7.379,17.039c1.456,6.505,2.184,13.349,2.184,20.583V2584.202L1424.211,2584.202z"/>
	<path style="fill:#808080;" d="M1575.911,2514.589c0,3.689-0.922,6.311-2.767,7.913c-1.844,1.553-3.981,2.33-6.359,2.33h-84.078
		c0,7.136,0.728,13.544,2.136,19.223c1.408,5.728,3.786,10.631,7.136,14.709c3.301,4.078,7.621,7.185,12.913,9.369
		c5.34,2.185,11.845,3.301,19.515,3.301c6.068,0,11.505-0.485,16.214-1.505c4.757-0.971,8.884-2.087,12.33-3.301
		c3.447-1.214,6.311-2.33,8.544-3.301c2.233-1.02,3.884-1.505,5.049-1.505c0.679,0,1.262,0.146,1.796,0.485
		c0.485,0.34,0.922,0.825,1.165,1.505c0.292,0.632,0.534,1.554,0.68,2.719c0.146,1.214,0.195,2.621,0.195,4.32
		c0,1.214-0.049,2.282-0.146,3.204c-0.097,0.874-0.194,1.699-0.34,2.378c-0.146,0.728-0.389,1.359-0.728,1.942
		c-0.34,0.534-0.728,1.068-1.262,1.602c-0.534,0.534-2.087,1.359-4.612,2.524c-2.573,1.213-5.874,2.33-9.952,3.495
		c-4.078,1.117-8.787,2.136-14.126,3.01c-5.34,0.922-11.02,1.359-17.087,1.359c-10.534,0-19.709-1.457-27.622-4.418
		c-7.912-2.913-14.563-7.281-19.952-13.058c-5.388-5.826-9.466-13.058-12.184-21.797c-2.767-8.689-4.126-18.835-4.126-30.437
		c0-10.971,1.408-20.874,4.272-29.661c2.816-8.738,6.942-16.214,12.282-22.33c5.34-6.117,11.845-10.777,19.418-14.078
		c7.573-3.252,16.068-4.903,25.437-4.903c10.049,0,18.592,1.602,25.631,4.854c7.087,3.204,12.864,7.573,17.427,13.01
		c4.514,5.437,7.864,11.845,10,19.223c2.136,7.33,3.204,15.195,3.204,23.544V2514.589L1575.911,2514.589z M1552.319,2507.648
		c0.291-12.33-2.428-22.039-8.204-29.078s-14.272-10.534-25.583-10.534c-5.825,0-10.922,1.068-15.291,3.252
		c-4.369,2.184-8.01,5.097-10.971,8.738c-2.961,3.592-5.243,7.816-6.844,12.573c-1.602,4.806-2.524,9.806-2.719,15.049H1552.319
		L1552.319,2507.648z"/>
	<path style="fill:#808080;" d="M1721.98,2584.202c0,0.777-0.194,1.407-0.582,1.942c-0.389,0.485-0.971,0.971-1.845,1.359
		c-0.874,0.34-2.039,0.631-3.592,0.825c-1.505,0.194-3.398,0.291-5.68,0.291c-2.427,0-4.369-0.097-5.874-0.291
		c-1.553-0.194-2.719-0.485-3.592-0.825c-0.874-0.388-1.457-0.874-1.845-1.359c-0.388-0.534-0.583-1.165-0.583-1.942v-75.001
		c0-7.282-0.583-13.204-1.699-17.622c-1.117-4.466-2.767-8.301-4.952-11.553c-2.184-3.204-4.951-5.68-8.398-7.379
		c-3.446-1.699-7.427-2.573-11.942-2.573c-5.874,0-11.699,2.087-17.524,6.262c-5.874,4.175-11.99,10.291-18.398,18.35v89.515
		c0,0.777-0.194,1.407-0.583,1.942c-0.388,0.485-0.971,0.971-1.845,1.359c-0.874,0.34-2.039,0.631-3.592,0.825
		c-1.505,0.194-3.447,0.291-5.825,0.291c-2.33,0-4.224-0.097-5.729-0.291c-1.553-0.194-2.767-0.485-3.641-0.825
		c-0.922-0.388-1.553-0.874-1.893-1.359c-0.34-0.534-0.485-1.165-0.485-1.942v-128.059c0-0.777,0.146-1.408,0.437-1.942
		c0.291-0.486,0.825-0.971,1.699-1.407c0.874-0.437,1.942-0.728,3.301-0.874c1.311-0.146,3.107-0.194,5.292-0.194
		c2.087,0,3.835,0.048,5.194,0.194c1.408,0.146,2.476,0.437,3.253,0.874c0.728,0.437,1.31,0.922,1.65,1.407
		c0.292,0.534,0.485,1.165,0.485,1.942v16.942c7.185-8.107,14.32-14.029,21.505-17.767c7.136-3.738,14.32-5.631,21.602-5.631
		c8.495,0,15.68,1.456,21.505,4.321c5.825,2.913,10.534,6.796,14.126,11.602c3.592,4.854,6.166,10.534,7.719,17.039
		c1.553,6.505,2.33,14.321,2.33,23.398V2584.202L1721.98,2584.202z"/>
	<path style="fill:#808080;" d="M1828.632,2574.687c0,2.767-0.194,4.951-0.583,6.553c-0.34,1.602-0.922,2.816-1.699,3.544
		c-0.728,0.777-1.893,1.504-3.398,2.136c-1.505,0.679-3.252,1.213-5.194,1.65c-1.942,0.437-3.981,0.777-6.165,1.068
		c-2.185,0.291-4.321,0.437-6.505,0.437c-6.651,0-12.331-0.873-17.039-2.621c-4.709-1.748-8.593-4.417-11.651-7.961
		c-3.009-3.544-5.194-8.058-6.602-13.495c-1.359-5.437-2.039-11.845-2.039-19.223v-74.661h-18.01c-1.408,0-2.573-0.777-3.447-2.281
		c-0.825-1.505-1.263-3.98-1.263-7.427c0-1.796,0.098-3.301,0.34-4.515c0.243-1.262,0.583-2.282,0.923-3.107
		c0.388-0.777,0.922-1.359,1.505-1.699c0.631-0.34,1.31-0.485,2.087-0.485h17.864v-30.389c0-0.679,0.145-1.31,0.485-1.844
		c0.34-0.583,0.971-1.068,1.893-1.505c0.874-0.437,2.087-0.728,3.641-0.922c1.505-0.194,3.398-0.291,5.728-0.291
		c2.379,0,4.32,0.097,5.825,0.291c1.553,0.194,2.719,0.486,3.592,0.922s1.456,0.922,1.844,1.505
		c0.388,0.534,0.583,1.165,0.583,1.844v30.389h32.622c0.777,0,1.408,0.146,1.99,0.485c0.534,0.34,1.068,0.922,1.457,1.699
		c0.437,0.825,0.728,1.845,0.922,3.107c0.194,1.213,0.291,2.718,0.291,4.515c0,3.447-0.437,5.922-1.262,7.427
		c-0.874,1.505-1.99,2.281-3.398,2.281h-32.622v71.214c0,8.787,1.311,15.437,3.884,19.903c2.573,4.515,7.233,6.748,13.932,6.748
		c2.136,0,4.078-0.194,5.777-0.631c1.699-0.437,3.204-0.874,4.514-1.359c1.311-0.485,2.427-0.923,3.398-1.359
		c0.922-0.437,1.796-0.631,2.524-0.631c0.485,0,0.922,0.097,1.359,0.34c0.389,0.243,0.728,0.679,0.971,1.359
		c0.243,0.68,0.437,1.553,0.631,2.719C1828.535,2571.532,1828.632,2572.988,1828.632,2574.687L1828.632,2574.687z"/>
	<polygon style="fill:none;stroke:#FFFFFF;stroke-width:0.9998;stroke-miterlimit:22.9256;" points="-1540.5,-1959.5 
		3459.499,-1959.5 3459.499,3040.499 -1540.5,3040.499 -1540.5,-1959.5 	"/>
</g>
</svg>
