<?xml version="1.0" encoding="utf-8"?>
<!-- Generator: Adobe Illustrator 27.5.0, SVG Export Plug-In . SVG Version: 6.00 Build 0)  -->
<svg version="1.1" id="Layer_1" xmlns="http://www.w3.org/2000/svg" xmlns:xlink="http://www.w3.org/1999/xlink" x="0px" y="0px"
	 viewBox="0 0 4000 4000" style="enable-background:new 0 0 4000 4000;" xml:space="preserve">
<rect style="fill:#FFFFFF;" width="4000" height="4000"/>
<g>
	<g>
		
			<path style="fill:none;stroke:#000000;stroke-width:72.3737;stroke-linecap:round;stroke-linejoin:round;stroke-miterlimit:10;" d="
			M2433.64,1316.23h-867.22c-46.797,0-81.312,43.906-70.031,89.324c98.437,396.298,98.437,792.595,0,1188.893
			c-11.281,45.417,23.233,89.324,70.031,89.324h867.22c45.709,0,79.846-41.973,70.604-86.738
			c-82.175-398.021-82.175-796.043,0-1194.064C2513.487,1358.203,2479.35,1316.23,2433.64,1316.23z"/>
		<g>
			
				<line style="fill:none;stroke:#000000;stroke-width:72.3737;stroke-linecap:round;stroke-linejoin:round;stroke-miterlimit:10;" x1="1710.324" y1="2397.65" x2="2289.676" y2="2397.65"/>
			
				<line style="fill:none;stroke:#000000;stroke-width:72.3737;stroke-linecap:round;stroke-linejoin:round;stroke-miterlimit:10;" x1="1783.407" y1="2198.825" x2="2216.593" y2="2198.825"/>
			
				<line style="fill:none;stroke:#000000;stroke-width:72.3737;stroke-linecap:round;stroke-linejoin:round;stroke-miterlimit:10;" x1="1710.324" y1="1602.35" x2="2289.676" y2="1602.35"/>
			
				<line style="fill:none;stroke:#000000;stroke-width:72.3737;stroke-linecap:round;stroke-linejoin:round;stroke-miterlimit:10;" x1="1783.407" y1="1801.175" x2="2216.593" y2="1801.175"/>
			
				<line style="fill:none;stroke:#000000;stroke-width:72.3737;stroke-linecap:round;stroke-linejoin:round;stroke-miterlimit:10;" x1="1874.352" y1="2000" x2="2125.648" y2="2000"/>
		</g>
	</g>
	<g>
		<g>
			
				<line style="fill:none;stroke:#000000;stroke-width:72.3737;stroke-linecap:round;stroke-linejoin:round;stroke-miterlimit:10;" x1="3100" y1="1659.799" x2="2731.73" y2="1659.799"/>
			
				<polyline style="fill:none;stroke:#000000;stroke-width:72.3737;stroke-linecap:round;stroke-linejoin:round;stroke-miterlimit:10;" points="
				2839.516,1562.492 2731.73,1659.799 2839.516,1758.603 			"/>
		</g>
		<g>
			
				<line style="fill:none;stroke:#000000;stroke-width:72.3737;stroke-linecap:round;stroke-linejoin:round;stroke-miterlimit:10;" x1="3100" y1="2382.866" x2="2731.73" y2="2382.866"/>
			
				<polyline style="fill:none;stroke:#000000;stroke-width:72.3737;stroke-linecap:round;stroke-linejoin:round;stroke-miterlimit:10;" points="
				2839.516,2285.559 2731.73,2382.866 2839.516,2481.671 			"/>
		</g>
	</g>
	<g>
		<g>
			
				<line style="fill:none;stroke:#000000;stroke-width:72.3737;stroke-linecap:round;stroke-linejoin:round;stroke-miterlimit:10;" x1="900" y1="1659.799" x2="1268.27" y2="1659.799"/>
			
				<polyline style="fill:none;stroke:#000000;stroke-width:72.3737;stroke-linecap:round;stroke-linejoin:round;stroke-miterlimit:10;" points="
				1160.484,1562.492 1268.27,1659.799 1160.484,1758.603 			"/>
		</g>
		<g>
			
				<line style="fill:none;stroke:#000000;stroke-width:72.3737;stroke-linecap:round;stroke-linejoin:round;stroke-miterlimit:10;" x1="900" y1="2382.866" x2="1268.27" y2="2382.866"/>
			
				<polyline style="fill:none;stroke:#000000;stroke-width:72.3737;stroke-linecap:round;stroke-linejoin:round;stroke-miterlimit:10;" points="
				1160.484,2285.559 1268.27,2382.866 1160.484,2481.671 			"/>
		</g>
	</g>
</g>
</svg>
