<?xml version="1.0" encoding="utf-8"?>
<!-- Generator: Adobe Illustrator 27.5.0, SVG Export Plug-In . SVG Version: 6.00 Build 0)  -->
<svg version="1.1" id="Layer_1" xmlns="http://www.w3.org/2000/svg" xmlns:xlink="http://www.w3.org/1999/xlink" x="0px" y="0px"
	 viewBox="0 0 1920 1080" style="enable-background:new 0 0 1920 1080;" xml:space="preserve">
<g>
	<path style="fill-rule:evenodd;clip-rule:evenodd;fill:#FFFFFF;stroke:#E6E6E6;stroke-width:0.9998;stroke-miterlimit:2.6131;" d="
		M-1221-1824.001h4361c101.201,0,184.001,82.8,184.001,184.001v4361c0,101.2-82.8,184-184.001,184h-4361c-101.2,0-184-82.8-184-184
		v-4361C-1405-1741.201-1322.201-1824.001-1221-1824.001L-1221-1824.001z"/>
	<polygon style="fill:none;stroke:#FFFFFF;stroke-width:0.9998;stroke-miterlimit:22.9256;" points="-1540.5,-1959.5 
		3459.499,-1959.5 3459.499,3040.499 -1540.5,3040.499 -1540.5,-1959.5 	"/>
	<path style="fill:#666666;" d="M109.299,2433.601c0,1.969-0.11,3.666-0.328,5.088c-0.219,1.422-0.602,2.626-1.094,3.611
		c-0.547,0.985-1.149,1.641-1.86,2.079c-0.711,0.438-1.477,0.656-2.353,0.656H4.035c-2.462,0-4.814-0.821-7.003-2.462
		c-2.189-1.696-3.283-4.596-3.283-8.754v-185.031c0-4.158,1.094-7.058,3.283-8.754c2.188-1.642,4.541-2.462,7.003-2.462h98.479
		c0.875,0,1.641,0.219,2.353,0.656c0.711,0.438,1.259,1.094,1.696,2.079c0.383,0.985,0.766,2.188,1.039,3.611
		c0.274,1.423,0.383,3.228,0.383,5.362c0,1.969-0.109,3.611-0.383,5.088c-0.274,1.423-0.656,2.626-1.039,3.556
		c-0.438,0.875-1.04,1.532-1.696,1.969c-0.711,0.438-1.477,0.656-2.353,0.656h-81.19v64.996h69.701c0.875,0,1.641,0.219,2.352,0.711
		c0.657,0.492,1.258,1.149,1.751,2.024c0.492,0.875,0.821,2.024,1.04,3.502c0.219,1.532,0.328,3.282,0.328,5.307
		c0,1.969-0.109,3.611-0.328,4.979c-0.219,1.423-0.547,2.517-1.04,3.392c-0.492,0.875-1.094,1.477-1.751,1.86
		c-0.711,0.383-1.477,0.547-2.352,0.547H21.324v74.188h82.339c0.875,0,1.642,0.219,2.353,0.656c0.711,0.438,1.313,1.094,1.86,1.97
		c0.492,0.93,0.875,2.134,1.094,3.556C109.189,2429.662,109.299,2431.468,109.299,2433.601L109.299,2433.601z"/>
	<path style="fill:#666666;" d="M269.71,2441.042c0,0.875-0.164,1.586-0.547,2.243c-0.383,0.657-1.04,1.149-1.915,1.532
		c-0.93,0.383-2.134,0.656-3.611,0.875c-1.532,0.219-3.337,0.328-5.471,0.328c-2.243,0-4.103-0.109-5.58-0.328
		c-1.532-0.219-2.736-0.492-3.721-0.875c-0.93-0.383-1.641-0.875-2.079-1.532c-0.383-0.656-0.602-1.422-0.602-2.243v-19.204
		c-7.605,8.261-15.483,14.663-23.635,19.258c-8.207,4.596-17.125,6.893-26.863,6.893c-10.559,0-19.587-2.079-27.027-6.182
		c-7.495-4.103-13.568-9.684-18.219-16.687c-4.595-7.003-7.988-15.21-10.121-24.675c-2.134-9.465-3.228-19.422-3.228-29.872
		c0-12.419,1.313-23.635,3.994-33.592c2.681-10.012,6.62-18.547,11.872-25.604c5.197-7.058,11.708-12.474,19.477-16.249
		c7.714-3.775,16.632-5.69,26.808-5.69c8.425,0,16.14,1.86,23.142,5.526c7.003,3.72,13.897,9.136,20.735,16.304v-83.652
		c0-0.766,0.164-1.477,0.547-2.188c0.383-0.711,1.094-1.203,2.189-1.586c1.04-0.383,2.407-0.711,4.048-0.985
		c1.696-0.273,3.775-0.383,6.347-0.383c2.681,0,4.869,0.109,6.565,0.383c1.696,0.274,3.064,0.602,3.994,0.985
		c0.985,0.383,1.696,0.875,2.188,1.586c0.493,0.711,0.712,1.423,0.712,2.188V2441.042L269.71,2441.042z M243.12,2339.445
		c-7.112-8.918-14.006-15.702-20.68-20.353c-6.675-4.65-13.623-7.003-20.845-7.003c-6.729,0-12.419,1.586-17.125,4.815
		c-4.705,3.228-8.48,7.441-11.434,12.693c-2.899,5.198-5.034,11.161-6.346,17.781c-1.368,6.62-2.024,13.349-2.024,20.188
		c0,7.277,0.547,14.389,1.696,21.337c1.094,6.948,3.064,13.131,5.8,18.547c2.79,5.416,6.456,9.739,11.051,13.021
		c4.541,3.228,10.341,4.869,17.234,4.869c3.502,0,6.894-0.492,10.176-1.423c3.228-0.985,6.565-2.571,9.957-4.814
		c3.392-2.243,7.003-5.143,10.723-8.754c3.72-3.556,7.659-7.933,11.817-13.185V2339.445L243.12,2339.445z"/>
	<path style="fill:#666666;" d="M345.319,2441.042c0,0.875-0.219,1.586-0.656,2.188c-0.438,0.547-1.094,1.094-2.079,1.532
		c-0.985,0.383-2.298,0.711-4.049,0.93c-1.696,0.219-3.884,0.328-6.565,0.328c-2.626,0-4.76-0.109-6.456-0.328
		c-1.751-0.219-3.119-0.547-4.103-0.93c-1.04-0.438-1.751-0.985-2.134-1.532c-0.383-0.602-0.547-1.313-0.547-2.188v-144.326
		c0-0.766,0.164-1.477,0.547-2.079c0.383-0.656,1.094-1.204,2.134-1.641c0.985-0.383,2.353-0.711,4.103-0.93
		c1.696-0.219,3.83-0.328,6.456-0.328c2.681,0,4.869,0.109,6.565,0.328c1.751,0.219,3.064,0.547,4.049,0.93
		c0.985,0.438,1.641,0.985,2.079,1.641c0.438,0.602,0.656,1.313,0.656,2.079V2441.042L345.319,2441.042z M348.274,2248.078
		c0,6.237-1.204,10.449-3.556,12.693c-2.352,2.243-6.675,3.392-13.021,3.392c-6.237,0-10.504-1.094-12.802-3.283
		c-2.298-2.188-3.447-6.346-3.447-12.474c0-6.237,1.204-10.45,3.556-12.693c2.353-2.243,6.675-3.392,13.021-3.392
		c6.237,0,10.505,1.094,12.802,3.282C347.125,2237.792,348.274,2241.95,348.274,2248.078L348.274,2248.078z"/>
	<path style="fill:#666666;" d="M468.91,2430.319c0,3.119-0.219,5.581-0.656,7.386c-0.383,1.805-1.04,3.173-1.915,3.994
		c-0.821,0.875-2.134,1.696-3.83,2.407c-1.696,0.766-3.665,1.368-5.854,1.86c-2.188,0.492-4.486,0.875-6.948,1.204
		c-2.462,0.328-4.869,0.492-7.331,0.492c-7.495,0-13.896-0.984-19.204-2.954c-5.307-1.969-9.684-4.979-13.13-8.972
		c-3.392-3.994-5.854-9.082-7.441-15.21c-1.532-6.128-2.298-13.349-2.298-21.665v-84.145h-20.298c-1.587,0-2.9-0.876-3.884-2.572
		c-0.93-1.696-1.422-4.486-1.422-8.371c0-2.024,0.109-3.72,0.383-5.088c0.274-1.423,0.657-2.572,1.04-3.502
		c0.438-0.875,1.039-1.532,1.696-1.915c0.711-0.383,1.477-0.547,2.353-0.547h20.134v-34.249c0-0.766,0.164-1.477,0.547-2.079
		c0.383-0.656,1.094-1.204,2.134-1.696c0.985-0.492,2.352-0.821,4.103-1.039c1.696-0.219,3.83-0.328,6.456-0.328
		c2.681,0,4.869,0.109,6.565,0.328c1.751,0.219,3.064,0.547,4.048,1.039c0.985,0.492,1.642,1.04,2.079,1.696
		c0.438,0.602,0.656,1.313,0.656,2.079v34.249h36.765c0.875,0,1.587,0.164,2.243,0.547c0.602,0.383,1.204,1.04,1.641,1.915
		c0.492,0.93,0.821,2.079,1.04,3.502c0.219,1.368,0.328,3.064,0.328,5.088c0,3.885-0.492,6.675-1.422,8.371
		c-0.985,1.696-2.243,2.572-3.83,2.572h-36.765v80.26c0,9.903,1.477,17.398,4.377,22.431c2.9,5.088,8.152,7.605,15.702,7.605
		c2.407,0,4.596-0.219,6.511-0.711c1.915-0.493,3.611-0.985,5.088-1.532s2.736-1.04,3.83-1.532c1.039-0.492,2.024-0.711,2.845-0.711
		c0.547,0,1.039,0.11,1.532,0.383c0.438,0.273,0.821,0.766,1.094,1.532c0.274,0.766,0.492,1.751,0.711,3.064
		C468.801,2426.762,468.91,2428.404,468.91,2430.319L468.91,2430.319z"/>
	<path style="fill:#666666;" d="M740.712,2338.241c0,17.945-2.298,33.647-6.894,47.051c-4.595,13.459-11.325,24.565-20.133,33.373
		s-19.641,15.428-32.443,19.805c-12.857,4.377-28.121,6.565-45.847,6.565h-43.933c-2.462,0-4.814-0.821-7.003-2.462
		c-2.188-1.696-3.282-4.596-3.282-8.754v-185.031c0-4.158,1.094-7.058,3.282-8.754c2.189-1.642,4.541-2.462,7.003-2.462h46.942
		c18,0,33.154,2.298,45.574,6.948c12.365,4.65,22.76,11.38,31.185,20.079c8.371,8.699,14.717,19.258,19.039,31.677
		C738.524,2308.643,740.712,2322.648,740.712,2338.241L740.712,2338.241z M711.825,2339.445c0-11.216-1.367-21.665-4.158-31.349
		s-7.167-18.054-13.076-25.112c-5.964-7.058-13.459-12.529-22.595-16.523c-9.082-3.939-20.79-5.909-35.124-5.909h-28.121v161.505
		h28.395c13.294,0,24.456-1.641,33.592-4.979c9.082-3.283,16.687-8.371,22.76-15.21c6.127-6.839,10.723-15.428,13.732-25.769
		C710.293,2365.815,711.825,2353.56,711.825,2339.445L711.825,2339.445z"/>
	<path style="fill:#666666;" d="M914.09,2367.183c0,11.763-1.532,22.595-4.65,32.498c-3.064,9.848-7.714,18.383-13.842,25.55
		c-6.127,7.167-13.842,12.747-23.033,16.741c-9.246,3.994-19.969,6.018-32.115,6.018c-11.872,0-22.212-1.751-31.021-5.307
		c-8.808-3.502-16.14-8.644-21.994-15.374c-5.854-6.729-10.231-14.936-13.131-24.51c-2.899-9.629-4.322-20.516-4.322-32.717
		c0-11.763,1.531-22.595,4.541-32.443c3.064-9.902,7.659-18.437,13.787-25.604c6.128-7.167,13.787-12.693,22.979-16.687
		c9.191-3.939,19.914-5.908,32.169-5.908c11.872,0,22.213,1.751,31.021,5.307c8.808,3.501,16.14,8.644,21.994,15.374
		c5.854,6.729,10.286,14.881,13.24,24.51C912.613,2344.259,914.09,2355.092,914.09,2367.183L914.09,2367.183z M886.516,2368.879
		c0-7.824-0.711-15.21-2.188-22.158c-1.422-6.948-3.83-13.021-7.167-18.273c-3.283-5.252-7.823-9.41-13.513-12.419
		c-5.635-3.064-12.748-4.596-21.228-4.596c-7.823,0-14.553,1.368-20.188,4.158c-5.635,2.79-10.231,6.729-13.897,11.817
		c-3.665,5.088-6.346,11.106-8.097,18.054c-1.805,6.948-2.68,14.553-2.68,22.76c0,7.933,0.711,15.374,2.188,22.322
		c1.423,6.948,3.83,13.021,7.222,18.219c3.392,5.143,7.933,9.301,13.568,12.31c5.69,3.064,12.802,4.596,21.282,4.596
		c7.714,0,14.389-1.368,20.079-4.158c5.69-2.79,10.34-6.675,14.006-11.708c3.666-5.033,6.346-11.052,8.042-18
		C885.64,2384.854,886.516,2377.195,886.516,2368.879L886.516,2368.879z"/>
	<path style="fill:#666666;" d="M1056.994,2418.829c0,1.806-0.055,3.392-0.164,4.705c-0.11,1.368-0.274,2.462-0.547,3.392
		c-0.274,0.93-0.602,1.696-0.985,2.407c-0.383,0.711-1.204,1.751-2.571,3.064c-1.313,1.368-3.611,3.009-6.784,5.033
		c-3.228,1.969-6.839,3.775-10.833,5.307c-4.049,1.587-8.371,2.845-13.076,3.775c-4.705,0.985-9.574,1.477-14.608,1.477
		c-10.395,0-19.586-1.696-27.574-5.143c-8.042-3.392-14.772-8.371-20.133-14.936c-5.417-6.565-9.52-14.662-12.365-24.182
		c-2.845-9.574-4.267-20.571-4.267-33.1c0-14.17,1.751-26.37,5.197-36.601c3.502-10.176,8.261-18.547,14.28-25.057
		c6.073-6.51,13.185-11.325,21.337-14.498c8.207-3.118,17.07-4.705,26.589-4.705c4.595,0,9.027,0.438,13.349,1.313
		c4.377,0.821,8.316,1.969,11.982,3.337c3.611,1.422,6.894,3.009,9.683,4.869c2.845,1.805,4.924,3.392,6.182,4.65
		c1.313,1.313,2.189,2.353,2.681,3.064c0.438,0.766,0.875,1.641,1.203,2.681c0.274,0.985,0.492,2.134,0.602,3.447
		c0.11,1.258,0.164,2.9,0.164,4.815c0,4.158-0.492,7.058-1.423,8.754c-0.985,1.641-2.133,2.462-3.556,2.462
		c-1.587,0-3.447-0.875-5.526-2.681c-2.079-1.75-4.705-3.72-7.933-5.854c-3.228-2.134-7.112-4.103-11.653-5.854
		c-4.541-1.806-9.903-2.681-16.085-2.681c-12.748,0-22.541,4.869-29.325,14.663c-6.784,9.739-10.176,23.908-10.176,42.455
		c0,9.246,0.875,17.398,2.626,24.401c1.806,6.948,4.377,12.802,7.823,17.507c3.392,4.651,7.605,8.152,12.584,10.45
		c4.979,2.298,10.668,3.447,17.07,3.447c6.127,0,11.489-0.985,16.084-2.9c4.596-1.915,8.535-4.049,11.927-6.401
		c3.392-2.298,6.237-4.377,8.534-6.237c2.298-1.915,4.049-2.845,5.362-2.845c0.711,0,1.368,0.219,1.915,0.657
		c0.547,0.438,0.985,1.149,1.368,2.134c0.383,1.04,0.656,2.298,0.821,3.885C1056.939,2414.835,1056.994,2416.696,1056.994,2418.829
		L1056.994,2418.829z"/>
	<path style="fill:#666666;" d="M1215.49,2441.042c0,0.875-0.164,1.586-0.547,2.188c-0.384,0.547-1.04,1.094-2.025,1.532
		c-0.93,0.383-2.188,0.711-3.775,0.93c-1.532,0.219-3.447,0.328-5.69,0.328c-2.407,0-4.431-0.109-5.963-0.328
		c-1.587-0.219-2.79-0.547-3.72-0.93c-0.875-0.438-1.532-0.985-1.805-1.532c-0.328-0.602-0.492-1.313-0.492-2.188v-19.094
		c-8.261,9.082-16.358,15.647-24.401,19.805c-7.988,4.158-16.14,6.237-24.346,6.237c-9.629,0-17.726-1.586-24.292-4.814
		c-6.565-3.173-11.927-7.55-15.976-13.076c-4.049-5.471-6.948-11.872-8.754-19.203c-1.75-7.331-2.626-16.249-2.626-26.699v-87.482
		c0-0.875,0.164-1.587,0.547-2.188c0.383-0.547,1.094-1.094,2.188-1.586c1.039-0.492,2.462-0.821,4.158-0.985
		c1.696-0.164,3.83-0.219,6.401-0.219s4.705,0.055,6.401,0.219s3.064,0.492,4.104,0.985c0.985,0.492,1.696,1.039,2.134,1.586
		c0.438,0.602,0.656,1.313,0.656,2.188v84.035c0,8.426,0.602,15.21,1.86,20.298c1.204,5.088,3.064,9.41,5.581,12.966
		c2.517,3.611,5.744,6.401,9.574,8.371c3.83,1.97,8.316,2.955,13.459,2.955c6.62,0,13.24-2.353,19.805-7.058
		c6.62-4.705,13.568-11.599,20.954-20.681v-100.886c0-0.875,0.164-1.587,0.547-2.188c0.383-0.547,1.094-1.094,2.189-1.586
		c1.039-0.492,2.407-0.821,4.048-0.985c1.696-0.164,3.83-0.219,6.51-0.219c2.572,0,4.705,0.055,6.401,0.219
		c1.696,0.164,3.064,0.492,3.994,0.985c0.985,0.492,1.696,1.039,2.188,1.586c0.493,0.602,0.711,1.313,0.711,2.188V2441.042
		L1215.49,2441.042z"/>
	<path style="fill:#666666;" d="M1478.538,2441.042c0,0.875-0.219,1.586-0.656,2.188c-0.438,0.547-1.094,1.094-2.079,1.532
		c-0.93,0.383-2.298,0.711-3.994,0.93c-1.696,0.219-3.83,0.328-6.401,0.328c-2.681,0-4.869-0.109-6.565-0.328
		c-1.696-0.219-3.064-0.547-4.104-0.93c-0.985-0.438-1.696-0.985-2.134-1.532c-0.438-0.602-0.656-1.313-0.656-2.188v-87.701
		c0-6.128-0.547-11.708-1.587-16.687c-1.094-5.033-2.79-9.356-5.143-13.021c-2.353-3.611-5.307-6.401-8.918-8.316
		c-3.611-1.915-7.878-2.9-12.802-2.9c-6.073,0-12.2,2.353-18.273,7.058c-6.128,4.705-12.912,11.598-20.243,20.681v100.886
		c0,0.875-0.219,1.586-0.656,2.188c-0.438,0.547-1.149,1.094-2.188,1.532c-0.985,0.383-2.352,0.711-4.103,0.93
		c-1.696,0.219-3.83,0.328-6.401,0.328c-2.517,0-4.596-0.109-6.401-0.328c-1.751-0.219-3.173-0.547-4.158-0.93
		c-1.04-0.438-1.751-0.985-2.134-1.532c-0.383-0.602-0.547-1.313-0.547-2.188v-87.701c0-6.128-0.602-11.708-1.751-16.687
		c-1.204-5.033-2.954-9.356-5.307-13.021c-2.353-3.611-5.307-6.401-8.863-8.316c-3.611-1.915-7.823-2.9-12.748-2.9
		c-6.073,0-12.255,2.353-18.438,7.058c-6.182,4.705-12.911,11.598-20.188,20.681v100.886c0,0.875-0.219,1.586-0.656,2.188
		c-0.438,0.547-1.094,1.094-2.079,1.532c-0.985,0.383-2.298,0.711-4.049,0.93c-1.696,0.219-3.884,0.328-6.565,0.328
		c-2.626,0-4.76-0.109-6.456-0.328c-1.751-0.219-3.119-0.547-4.103-0.93c-1.04-0.438-1.751-0.985-2.134-1.532
		c-0.383-0.602-0.547-1.313-0.547-2.188v-144.326c0-0.875,0.164-1.587,0.492-2.188c0.328-0.547,0.93-1.094,1.915-1.586
		c0.985-0.492,2.188-0.821,3.72-0.985c1.477-0.164,3.501-0.219,5.963-0.219c2.353,0,4.322,0.055,5.854,0.219
		c1.587,0.164,2.79,0.492,3.666,0.985c0.821,0.492,1.477,1.039,1.86,1.586c0.328,0.602,0.547,1.313,0.547,2.188v19.094
		c8.097-9.136,16.03-15.811,23.69-20.024c7.605-4.212,15.374-6.346,23.143-6.346c6.018,0,11.38,0.711,16.14,2.079
		c4.76,1.423,8.972,3.337,12.583,5.854c3.666,2.517,6.784,5.526,9.301,9.027c2.571,3.447,4.705,7.331,6.456,11.653
		c4.814-5.252,9.355-9.684,13.677-13.349c4.322-3.666,8.48-6.565,12.474-8.863c3.994-2.243,7.879-3.884,11.653-4.869
		c3.83-1.039,7.605-1.532,11.435-1.532c9.301,0,17.07,1.641,23.362,4.869c6.292,3.283,11.38,7.66,15.319,13.076
		c3.885,5.471,6.62,11.872,8.316,19.203c1.641,7.331,2.462,15.045,2.462,23.197V2441.042L1478.538,2441.042z"/>
	<path style="fill:#666666;" d="M1649.508,2362.587c0,4.158-1.04,7.113-3.119,8.918c-2.079,1.751-4.486,2.626-7.167,2.626h-94.759
		c0,8.042,0.821,15.264,2.407,21.665c1.587,6.456,4.267,11.982,8.042,16.577c3.721,4.596,8.59,8.097,14.553,10.559
		c6.018,2.462,13.349,3.72,21.994,3.72c6.838,0,12.966-0.547,18.273-1.696c5.361-1.094,10.012-2.353,13.896-3.72
		c3.885-1.368,7.112-2.626,9.629-3.72c2.517-1.149,4.377-1.696,5.69-1.696c0.766,0,1.423,0.164,2.024,0.547
		c0.547,0.383,1.04,0.93,1.313,1.696c0.328,0.711,0.602,1.751,0.766,3.064c0.164,1.368,0.219,2.955,0.219,4.869
		c0,1.368-0.055,2.571-0.164,3.611c-0.11,0.985-0.219,1.915-0.383,2.681c-0.164,0.821-0.438,1.532-0.821,2.189
		c-0.383,0.602-0.821,1.203-1.423,1.805c-0.602,0.602-2.353,1.532-5.197,2.845c-2.9,1.368-6.62,2.626-11.216,3.939
		c-4.596,1.258-9.903,2.407-15.921,3.392c-6.018,1.039-12.419,1.532-19.258,1.532c-11.872,0-22.212-1.641-31.13-4.979
		c-8.918-3.283-16.413-8.207-22.487-14.717c-6.073-6.565-10.668-14.717-13.732-24.565c-3.118-9.793-4.65-21.228-4.65-34.303
		c0-12.365,1.587-23.525,4.814-33.428c3.173-9.848,7.823-18.273,13.842-25.167c6.018-6.894,13.349-12.146,21.884-15.866
		c8.535-3.666,18.109-5.526,28.668-5.526c11.325,0,20.954,1.805,28.887,5.471c7.988,3.611,14.498,8.535,19.641,14.662
		c5.088,6.128,8.863,13.35,11.27,21.665c2.407,8.261,3.611,17.125,3.611,26.535V2362.587L1649.508,2362.587z M1622.919,2354.763
		c0.328-13.896-2.735-24.839-9.246-32.772c-6.51-7.933-16.085-11.872-28.832-11.872c-6.566,0-12.31,1.204-17.234,3.666
		c-4.924,2.462-9.027,5.745-12.365,9.848c-3.337,4.049-5.908,8.808-7.714,14.17c-1.805,5.416-2.845,11.052-3.064,16.96H1622.919
		L1622.919,2354.763z"/>
	<path style="fill:#666666;" d="M1814.132,2441.042c0,0.875-0.219,1.586-0.657,2.188c-0.438,0.547-1.094,1.094-2.079,1.532
		c-0.985,0.383-2.298,0.711-4.048,0.93c-1.696,0.219-3.83,0.328-6.401,0.328c-2.735,0-4.924-0.109-6.62-0.328
		c-1.751-0.219-3.063-0.547-4.048-0.93c-0.985-0.438-1.641-0.985-2.079-1.532c-0.438-0.602-0.657-1.313-0.657-2.188v-84.528
		c0-8.206-0.656-14.881-1.915-19.86c-1.258-5.033-3.119-9.356-5.581-13.021c-2.462-3.611-5.58-6.401-9.465-8.316
		c-3.885-1.915-8.371-2.9-13.459-2.9c-6.62,0-13.185,2.353-19.75,7.058c-6.62,4.705-13.514,11.598-20.736,20.681v100.886
		c0,0.875-0.219,1.586-0.656,2.188c-0.438,0.547-1.094,1.094-2.079,1.532c-0.985,0.383-2.298,0.711-4.049,0.93
		c-1.696,0.219-3.884,0.328-6.565,0.328c-2.626,0-4.76-0.109-6.456-0.328c-1.75-0.219-3.118-0.547-4.103-0.93
		c-1.04-0.438-1.751-0.985-2.134-1.532c-0.383-0.602-0.547-1.313-0.547-2.188v-144.326c0-0.875,0.164-1.587,0.492-2.188
		c0.329-0.547,0.93-1.094,1.915-1.586c0.985-0.492,2.189-0.821,3.721-0.985c1.477-0.164,3.501-0.219,5.963-0.219
		c2.353,0,4.322,0.055,5.854,0.219c1.587,0.164,2.79,0.492,3.666,0.985c0.821,0.492,1.478,1.039,1.86,1.586
		c0.328,0.602,0.547,1.313,0.547,2.188v19.094c8.097-9.136,16.14-15.811,24.237-20.024c8.042-4.212,16.139-6.346,24.346-6.346
		c9.574,0,17.671,1.641,24.237,4.869c6.565,3.283,11.872,7.66,15.92,13.076c4.049,5.471,6.948,11.872,8.699,19.203
		s2.626,16.139,2.626,26.37V2441.042L1814.132,2441.042z"/>
	<path style="fill:#666666;" d="M1934.331,2430.319c0,3.119-0.219,5.581-0.657,7.386c-0.383,1.805-1.039,3.173-1.915,3.994
		c-0.82,0.875-2.133,1.696-3.829,2.407c-1.696,0.766-3.666,1.368-5.854,1.86c-2.189,0.492-4.486,0.875-6.948,1.204
		c-2.462,0.328-4.869,0.492-7.331,0.492c-7.495,0-13.897-0.984-19.204-2.954c-5.307-1.969-9.684-4.979-13.13-8.972
		c-3.392-3.994-5.854-9.082-7.44-15.21c-1.532-6.128-2.298-13.349-2.298-21.665v-84.145h-20.298c-1.587,0-2.899-0.876-3.884-2.572
		c-0.93-1.696-1.422-4.486-1.422-8.371c0-2.024,0.109-3.72,0.383-5.088c0.273-1.423,0.656-2.572,1.039-3.502
		c0.438-0.875,1.04-1.532,1.696-1.915c0.711-0.383,1.477-0.547,2.352-0.547h20.134v-34.249c0-0.766,0.164-1.477,0.547-2.079
		c0.383-0.656,1.094-1.204,2.134-1.696c0.985-0.492,2.352-0.821,4.103-1.039c1.696-0.219,3.83-0.328,6.456-0.328
		c2.681,0,4.869,0.109,6.565,0.328c1.751,0.219,3.064,0.547,4.049,1.039s1.642,1.04,2.079,1.696
		c0.438,0.602,0.657,1.313,0.657,2.079v34.249h36.765c0.875,0,1.586,0.164,2.243,0.547c0.602,0.383,1.204,1.04,1.642,1.915
		c0.492,0.93,0.821,2.079,1.04,3.502c0.219,1.368,0.328,3.064,0.328,5.088c0,3.885-0.493,6.675-1.422,8.371
		c-0.985,1.696-2.243,2.572-3.83,2.572h-36.765v80.26c0,9.903,1.477,17.398,4.376,22.431c2.9,5.088,8.152,7.605,15.702,7.605
		c2.407,0,4.596-0.219,6.511-0.711c1.915-0.493,3.61-0.985,5.088-1.532c1.477-0.547,2.735-1.04,3.83-1.532
		c1.039-0.492,2.024-0.711,2.845-0.711c0.547,0,1.04,0.11,1.532,0.383c0.438,0.273,0.821,0.766,1.094,1.532
		c0.273,0.766,0.492,1.751,0.711,3.064C1934.222,2426.762,1934.331,2428.404,1934.331,2430.319L1934.331,2430.319z"/>
	<path style="fill:none;stroke:#B3B3B3;stroke-width:0.216;stroke-miterlimit:22.9256;" d="M109.299,2433.601
		c0,1.969-0.11,3.666-0.328,5.088c-0.219,1.422-0.602,2.626-1.094,3.611c-0.547,0.985-1.149,1.641-1.86,2.079
		c-0.711,0.438-1.477,0.656-2.353,0.656H4.035c-2.462,0-4.814-0.821-7.003-2.462c-2.189-1.696-3.283-4.596-3.283-8.754v-185.031
		c0-4.158,1.094-7.058,3.283-8.754c2.188-1.642,4.541-2.462,7.003-2.462h98.479c0.875,0,1.641,0.219,2.353,0.656
		c0.711,0.438,1.259,1.094,1.696,2.079c0.383,0.985,0.766,2.188,1.039,3.611c0.274,1.423,0.383,3.228,0.383,5.362
		c0,1.969-0.109,3.611-0.383,5.088c-0.274,1.423-0.656,2.626-1.039,3.556c-0.438,0.875-1.04,1.532-1.696,1.969
		c-0.711,0.438-1.477,0.656-2.353,0.656h-81.19v64.996h69.701c0.875,0,1.641,0.219,2.352,0.711c0.657,0.492,1.258,1.149,1.751,2.024
		c0.492,0.875,0.821,2.024,1.04,3.502c0.219,1.532,0.328,3.282,0.328,5.307c0,1.969-0.109,3.611-0.328,4.979
		c-0.219,1.423-0.547,2.517-1.04,3.392c-0.492,0.875-1.094,1.477-1.751,1.86c-0.711,0.383-1.477,0.547-2.352,0.547H21.324v74.188
		h82.339c0.875,0,1.642,0.219,2.353,0.656c0.711,0.438,1.313,1.094,1.86,1.97c0.492,0.93,0.875,2.134,1.094,3.556
		C109.189,2429.662,109.299,2431.468,109.299,2433.601L109.299,2433.601z M269.71,2441.042c0,0.875-0.164,1.586-0.547,2.243
		c-0.383,0.657-1.04,1.149-1.915,1.532c-0.93,0.383-2.134,0.656-3.611,0.875c-1.532,0.219-3.337,0.328-5.471,0.328
		c-2.243,0-4.103-0.109-5.58-0.328c-1.532-0.219-2.736-0.492-3.721-0.875c-0.93-0.383-1.641-0.875-2.079-1.532
		c-0.383-0.656-0.602-1.422-0.602-2.243v-19.204c-7.605,8.261-15.483,14.663-23.635,19.258c-8.207,4.596-17.125,6.893-26.863,6.893
		c-10.559,0-19.587-2.079-27.027-6.182c-7.495-4.103-13.568-9.684-18.219-16.687c-4.595-7.003-7.988-15.21-10.121-24.675
		c-2.134-9.465-3.228-19.422-3.228-29.872c0-12.419,1.313-23.635,3.994-33.592c2.681-10.012,6.62-18.547,11.872-25.604
		c5.197-7.058,11.708-12.474,19.477-16.249c7.714-3.775,16.632-5.69,26.808-5.69c8.425,0,16.14,1.86,23.142,5.526
		c7.003,3.72,13.897,9.136,20.735,16.304v-83.652c0-0.766,0.164-1.477,0.547-2.188c0.383-0.711,1.094-1.203,2.189-1.586
		c1.04-0.383,2.407-0.711,4.048-0.985c1.696-0.273,3.775-0.383,6.347-0.383c2.681,0,4.869,0.109,6.565,0.383
		c1.696,0.274,3.064,0.602,3.994,0.985c0.985,0.383,1.696,0.875,2.188,1.586c0.493,0.711,0.712,1.423,0.712,2.188V2441.042
		L269.71,2441.042z M243.12,2339.445c-7.112-8.918-14.006-15.702-20.68-20.353c-6.675-4.65-13.623-7.003-20.845-7.003
		c-6.729,0-12.419,1.586-17.125,4.815c-4.705,3.228-8.48,7.441-11.434,12.693c-2.899,5.198-5.034,11.161-6.346,17.781
		c-1.368,6.62-2.024,13.349-2.024,20.188c0,7.277,0.547,14.389,1.696,21.337c1.094,6.948,3.064,13.131,5.8,18.547
		c2.79,5.416,6.456,9.739,11.051,13.021c4.541,3.228,10.341,4.869,17.234,4.869c3.502,0,6.894-0.492,10.176-1.423
		c3.228-0.985,6.565-2.571,9.957-4.814c3.392-2.243,7.003-5.143,10.723-8.754c3.72-3.556,7.659-7.933,11.817-13.185V2339.445
		L243.12,2339.445z M345.319,2441.042c0,0.875-0.219,1.586-0.656,2.188c-0.438,0.547-1.094,1.094-2.079,1.532
		c-0.985,0.383-2.298,0.711-4.049,0.93c-1.696,0.219-3.884,0.328-6.565,0.328c-2.626,0-4.76-0.109-6.456-0.328
		c-1.751-0.219-3.119-0.547-4.103-0.93c-1.04-0.438-1.751-0.985-2.134-1.532c-0.383-0.602-0.547-1.313-0.547-2.188v-144.326
		c0-0.766,0.164-1.477,0.547-2.079c0.383-0.656,1.094-1.204,2.134-1.641c0.985-0.383,2.353-0.711,4.103-0.93
		c1.696-0.219,3.83-0.328,6.456-0.328c2.681,0,4.869,0.109,6.565,0.328c1.751,0.219,3.064,0.547,4.049,0.93
		c0.985,0.438,1.641,0.985,2.079,1.641c0.438,0.602,0.656,1.313,0.656,2.079V2441.042L345.319,2441.042z M348.274,2248.078
		c0,6.237-1.204,10.449-3.556,12.693c-2.352,2.243-6.675,3.392-13.021,3.392c-6.237,0-10.504-1.094-12.802-3.283
		c-2.298-2.188-3.447-6.346-3.447-12.474c0-6.237,1.204-10.45,3.556-12.693c2.353-2.243,6.675-3.392,13.021-3.392
		c6.237,0,10.505,1.094,12.802,3.282C347.125,2237.792,348.274,2241.95,348.274,2248.078L348.274,2248.078z M468.91,2430.319
		c0,3.119-0.219,5.581-0.656,7.386c-0.383,1.805-1.04,3.173-1.915,3.994c-0.821,0.875-2.134,1.696-3.83,2.407
		c-1.696,0.766-3.665,1.368-5.854,1.86c-2.188,0.492-4.486,0.875-6.948,1.204c-2.462,0.328-4.869,0.492-7.331,0.492
		c-7.495,0-13.896-0.984-19.204-2.954c-5.307-1.969-9.684-4.979-13.13-8.972c-3.392-3.994-5.854-9.082-7.441-15.21
		c-1.532-6.128-2.298-13.349-2.298-21.665v-84.145h-20.298c-1.587,0-2.9-0.876-3.884-2.572c-0.93-1.696-1.422-4.486-1.422-8.371
		c0-2.024,0.109-3.72,0.383-5.088c0.274-1.423,0.657-2.572,1.04-3.502c0.438-0.875,1.039-1.532,1.696-1.915
		c0.711-0.383,1.477-0.547,2.353-0.547h20.134v-34.249c0-0.766,0.164-1.477,0.547-2.079c0.383-0.656,1.094-1.204,2.134-1.696
		c0.985-0.492,2.352-0.821,4.103-1.039c1.696-0.219,3.83-0.328,6.456-0.328c2.681,0,4.869,0.109,6.565,0.328
		c1.751,0.219,3.064,0.547,4.048,1.039c0.985,0.492,1.642,1.04,2.079,1.696c0.438,0.602,0.656,1.313,0.656,2.079v34.249h36.765
		c0.875,0,1.587,0.164,2.243,0.547c0.602,0.383,1.204,1.04,1.641,1.915c0.492,0.93,0.821,2.079,1.04,3.502
		c0.219,1.368,0.328,3.064,0.328,5.088c0,3.885-0.492,6.675-1.422,8.371c-0.985,1.696-2.243,2.572-3.83,2.572h-36.765v80.26
		c0,9.903,1.477,17.398,4.377,22.431c2.9,5.088,8.152,7.605,15.702,7.605c2.407,0,4.596-0.219,6.511-0.711
		c1.915-0.493,3.611-0.985,5.088-1.532s2.736-1.04,3.83-1.532c1.039-0.492,2.024-0.711,2.845-0.711c0.547,0,1.039,0.11,1.532,0.383
		c0.438,0.273,0.821,0.766,1.094,1.532c0.274,0.766,0.492,1.751,0.711,3.064C468.801,2426.762,468.91,2428.404,468.91,2430.319
		L468.91,2430.319z M740.712,2338.241c0,17.945-2.298,33.647-6.894,47.051c-4.595,13.459-11.325,24.565-20.133,33.373
		s-19.641,15.428-32.443,19.805c-12.857,4.377-28.121,6.565-45.847,6.565h-43.933c-2.462,0-4.814-0.821-7.003-2.462
		c-2.188-1.696-3.282-4.596-3.282-8.754v-185.031c0-4.158,1.094-7.058,3.282-8.754c2.189-1.642,4.541-2.462,7.003-2.462h46.942
		c18,0,33.154,2.298,45.574,6.948c12.365,4.65,22.76,11.38,31.185,20.079c8.371,8.699,14.717,19.258,19.039,31.677
		C738.524,2308.643,740.712,2322.648,740.712,2338.241L740.712,2338.241z M711.825,2339.445c0-11.216-1.367-21.665-4.158-31.349
		s-7.167-18.054-13.076-25.112c-5.964-7.058-13.459-12.529-22.595-16.523c-9.082-3.939-20.79-5.909-35.124-5.909h-28.121v161.505
		h28.395c13.294,0,24.456-1.641,33.592-4.979c9.082-3.283,16.687-8.371,22.76-15.21c6.127-6.839,10.723-15.428,13.732-25.769
		C710.293,2365.815,711.825,2353.56,711.825,2339.445L711.825,2339.445z M914.09,2367.183c0,11.763-1.532,22.595-4.65,32.498
		c-3.064,9.848-7.714,18.383-13.842,25.55c-6.127,7.167-13.842,12.747-23.033,16.741c-9.246,3.994-19.969,6.018-32.115,6.018
		c-11.872,0-22.212-1.751-31.021-5.307c-8.808-3.502-16.14-8.644-21.994-15.374c-5.854-6.729-10.231-14.936-13.131-24.51
		c-2.899-9.629-4.322-20.516-4.322-32.717c0-11.763,1.531-22.595,4.541-32.443c3.064-9.902,7.659-18.437,13.787-25.604
		c6.128-7.167,13.787-12.693,22.979-16.687c9.191-3.939,19.914-5.908,32.169-5.908c11.872,0,22.213,1.751,31.021,5.307
		c8.808,3.501,16.14,8.644,21.994,15.374c5.854,6.729,10.286,14.881,13.24,24.51C912.613,2344.259,914.09,2355.092,914.09,2367.183
		L914.09,2367.183z M886.516,2368.879c0-7.824-0.711-15.21-2.188-22.158c-1.422-6.948-3.83-13.021-7.167-18.273
		c-3.283-5.252-7.823-9.41-13.513-12.419c-5.635-3.064-12.748-4.596-21.228-4.596c-7.823,0-14.553,1.368-20.188,4.158
		c-5.635,2.79-10.231,6.729-13.897,11.817c-3.665,5.088-6.346,11.106-8.097,18.054c-1.805,6.948-2.68,14.553-2.68,22.76
		c0,7.933,0.711,15.374,2.188,22.322c1.423,6.948,3.83,13.021,7.222,18.219c3.392,5.143,7.933,9.301,13.568,12.31
		c5.69,3.064,12.802,4.596,21.282,4.596c7.714,0,14.389-1.368,20.079-4.158c5.69-2.79,10.34-6.675,14.006-11.708
		c3.666-5.033,6.346-11.052,8.042-18C885.64,2384.854,886.516,2377.195,886.516,2368.879L886.516,2368.879z M1056.994,2418.829
		c0,1.806-0.055,3.392-0.164,4.705c-0.11,1.368-0.274,2.462-0.547,3.392c-0.274,0.93-0.602,1.696-0.985,2.407
		c-0.383,0.711-1.204,1.751-2.571,3.064c-1.313,1.368-3.611,3.009-6.784,5.033c-3.228,1.969-6.839,3.775-10.833,5.307
		c-4.049,1.587-8.371,2.845-13.076,3.775c-4.705,0.985-9.574,1.477-14.608,1.477c-10.395,0-19.586-1.696-27.574-5.143
		c-8.042-3.392-14.772-8.371-20.133-14.936c-5.417-6.565-9.52-14.662-12.365-24.182c-2.845-9.574-4.267-20.571-4.267-33.1
		c0-14.17,1.751-26.37,5.197-36.601c3.502-10.176,8.261-18.547,14.28-25.057c6.073-6.51,13.185-11.325,21.337-14.498
		c8.207-3.118,17.07-4.705,26.589-4.705c4.595,0,9.027,0.438,13.349,1.313c4.377,0.821,8.316,1.969,11.982,3.337
		c3.611,1.422,6.894,3.009,9.683,4.869c2.845,1.805,4.924,3.392,6.182,4.65c1.313,1.313,2.189,2.353,2.681,3.064
		c0.438,0.766,0.875,1.641,1.203,2.681c0.274,0.985,0.492,2.134,0.602,3.447c0.11,1.258,0.164,2.9,0.164,4.815
		c0,4.158-0.492,7.058-1.423,8.754c-0.985,1.641-2.133,2.462-3.556,2.462c-1.587,0-3.447-0.875-5.526-2.681
		c-2.079-1.75-4.705-3.72-7.933-5.854c-3.228-2.134-7.112-4.103-11.653-5.854c-4.541-1.806-9.903-2.681-16.085-2.681
		c-12.748,0-22.541,4.869-29.325,14.663c-6.784,9.739-10.176,23.908-10.176,42.455c0,9.246,0.875,17.398,2.626,24.401
		c1.806,6.948,4.377,12.802,7.823,17.507c3.392,4.651,7.605,8.152,12.584,10.45c4.979,2.298,10.668,3.447,17.07,3.447
		c6.127,0,11.489-0.985,16.084-2.9c4.596-1.915,8.535-4.049,11.927-6.401c3.392-2.298,6.237-4.377,8.534-6.237
		c2.298-1.915,4.049-2.845,5.362-2.845c0.711,0,1.368,0.219,1.915,0.657c0.547,0.438,0.985,1.149,1.368,2.134
		c0.383,1.04,0.656,2.298,0.821,3.885C1056.939,2414.835,1056.994,2416.696,1056.994,2418.829L1056.994,2418.829z M1215.49,2441.042
		c0,0.875-0.164,1.586-0.547,2.188c-0.384,0.547-1.04,1.094-2.025,1.532c-0.93,0.383-2.188,0.711-3.775,0.93
		c-1.532,0.219-3.447,0.328-5.69,0.328c-2.407,0-4.431-0.109-5.963-0.328c-1.587-0.219-2.79-0.547-3.72-0.93
		c-0.875-0.438-1.532-0.985-1.805-1.532c-0.328-0.602-0.492-1.313-0.492-2.188v-19.094c-8.261,9.082-16.358,15.647-24.401,19.805
		c-7.988,4.158-16.14,6.237-24.346,6.237c-9.629,0-17.726-1.586-24.292-4.814c-6.565-3.173-11.927-7.55-15.976-13.076
		c-4.049-5.471-6.948-11.872-8.754-19.203c-1.75-7.331-2.626-16.249-2.626-26.699v-87.482c0-0.875,0.164-1.587,0.547-2.188
		c0.383-0.547,1.094-1.094,2.188-1.586c1.039-0.492,2.462-0.821,4.158-0.985c1.696-0.164,3.83-0.219,6.401-0.219
		s4.705,0.055,6.401,0.219s3.064,0.492,4.104,0.985c0.985,0.492,1.696,1.039,2.134,1.586c0.438,0.602,0.656,1.313,0.656,2.188
		v84.035c0,8.426,0.602,15.21,1.86,20.298c1.204,5.088,3.064,9.41,5.581,12.966c2.517,3.611,5.744,6.401,9.574,8.371
		c3.83,1.97,8.316,2.955,13.459,2.955c6.62,0,13.24-2.353,19.805-7.058c6.62-4.705,13.568-11.599,20.954-20.681v-100.886
		c0-0.875,0.164-1.587,0.547-2.188c0.383-0.547,1.094-1.094,2.189-1.586c1.039-0.492,2.407-0.821,4.048-0.985
		c1.696-0.164,3.83-0.219,6.51-0.219c2.572,0,4.705,0.055,6.401,0.219c1.696,0.164,3.064,0.492,3.994,0.985
		c0.985,0.492,1.696,1.039,2.188,1.586c0.493,0.602,0.711,1.313,0.711,2.188V2441.042L1215.49,2441.042z M1478.538,2441.042
		c0,0.875-0.219,1.586-0.656,2.188c-0.438,0.547-1.094,1.094-2.079,1.532c-0.93,0.383-2.298,0.711-3.994,0.93
		c-1.696,0.219-3.83,0.328-6.401,0.328c-2.681,0-4.869-0.109-6.565-0.328c-1.696-0.219-3.064-0.547-4.104-0.93
		c-0.985-0.438-1.696-0.985-2.134-1.532c-0.438-0.602-0.656-1.313-0.656-2.188v-87.701c0-6.128-0.547-11.708-1.587-16.687
		c-1.094-5.033-2.79-9.356-5.143-13.021c-2.353-3.611-5.307-6.401-8.918-8.316c-3.611-1.915-7.878-2.9-12.802-2.9
		c-6.073,0-12.2,2.353-18.273,7.058c-6.128,4.705-12.912,11.598-20.243,20.681v100.886c0,0.875-0.219,1.586-0.656,2.188
		c-0.438,0.547-1.149,1.094-2.188,1.532c-0.985,0.383-2.352,0.711-4.103,0.93c-1.696,0.219-3.83,0.328-6.401,0.328
		c-2.517,0-4.596-0.109-6.401-0.328c-1.751-0.219-3.173-0.547-4.158-0.93c-1.04-0.438-1.751-0.985-2.134-1.532
		c-0.383-0.602-0.547-1.313-0.547-2.188v-87.701c0-6.128-0.602-11.708-1.751-16.687c-1.204-5.033-2.954-9.356-5.307-13.021
		c-2.353-3.611-5.307-6.401-8.863-8.316c-3.611-1.915-7.823-2.9-12.748-2.9c-6.073,0-12.255,2.353-18.438,7.058
		c-6.182,4.705-12.911,11.598-20.188,20.681v100.886c0,0.875-0.219,1.586-0.656,2.188c-0.438,0.547-1.094,1.094-2.079,1.532
		c-0.985,0.383-2.298,0.711-4.049,0.93c-1.696,0.219-3.884,0.328-6.565,0.328c-2.626,0-4.76-0.109-6.456-0.328
		c-1.751-0.219-3.119-0.547-4.103-0.93c-1.04-0.438-1.751-0.985-2.134-1.532c-0.383-0.602-0.547-1.313-0.547-2.188v-144.326
		c0-0.875,0.164-1.587,0.492-2.188c0.328-0.547,0.93-1.094,1.915-1.586c0.985-0.492,2.188-0.821,3.72-0.985
		c1.477-0.164,3.501-0.219,5.963-0.219c2.353,0,4.322,0.055,5.854,0.219c1.587,0.164,2.79,0.492,3.666,0.985
		c0.821,0.492,1.477,1.039,1.86,1.586c0.328,0.602,0.547,1.313,0.547,2.188v19.094c8.097-9.136,16.03-15.811,23.69-20.024
		c7.605-4.212,15.374-6.346,23.143-6.346c6.018,0,11.38,0.711,16.14,2.079c4.76,1.423,8.972,3.337,12.583,5.854
		c3.666,2.517,6.784,5.526,9.301,9.027c2.571,3.447,4.705,7.331,6.456,11.653c4.814-5.252,9.355-9.684,13.677-13.349
		c4.322-3.666,8.48-6.565,12.474-8.863c3.994-2.243,7.879-3.884,11.653-4.869c3.83-1.039,7.605-1.532,11.435-1.532
		c9.301,0,17.07,1.641,23.362,4.869c6.292,3.283,11.38,7.66,15.319,13.076c3.885,5.471,6.62,11.872,8.316,19.203
		c1.641,7.331,2.462,15.045,2.462,23.197V2441.042L1478.538,2441.042z M1649.508,2362.587c0,4.158-1.04,7.113-3.119,8.918
		c-2.079,1.751-4.486,2.626-7.167,2.626h-94.759c0,8.042,0.821,15.264,2.407,21.665c1.587,6.456,4.267,11.982,8.042,16.577
		c3.721,4.596,8.59,8.097,14.553,10.559c6.018,2.462,13.349,3.72,21.994,3.72c6.838,0,12.966-0.547,18.273-1.696
		c5.361-1.094,10.012-2.353,13.896-3.72c3.885-1.368,7.112-2.626,9.629-3.72c2.517-1.149,4.377-1.696,5.69-1.696
		c0.766,0,1.423,0.164,2.024,0.547c0.547,0.383,1.04,0.93,1.313,1.696c0.328,0.711,0.602,1.751,0.766,3.064
		c0.164,1.368,0.219,2.955,0.219,4.869c0,1.368-0.055,2.571-0.164,3.611c-0.11,0.985-0.219,1.915-0.383,2.681
		c-0.164,0.821-0.438,1.532-0.821,2.189c-0.383,0.602-0.821,1.203-1.423,1.805c-0.602,0.602-2.353,1.532-5.197,2.845
		c-2.9,1.368-6.62,2.626-11.216,3.939c-4.596,1.258-9.903,2.407-15.921,3.392c-6.018,1.039-12.419,1.532-19.258,1.532
		c-11.872,0-22.212-1.641-31.13-4.979c-8.918-3.283-16.413-8.207-22.487-14.717c-6.073-6.565-10.668-14.717-13.732-24.565
		c-3.118-9.793-4.65-21.228-4.65-34.303c0-12.365,1.587-23.525,4.814-33.428c3.173-9.848,7.823-18.273,13.842-25.167
		c6.018-6.894,13.349-12.146,21.884-15.866c8.535-3.666,18.109-5.526,28.668-5.526c11.325,0,20.954,1.805,28.887,5.471
		c7.988,3.611,14.498,8.535,19.641,14.662c5.088,6.128,8.863,13.35,11.27,21.665c2.407,8.261,3.611,17.125,3.611,26.535V2362.587
		L1649.508,2362.587z M1622.919,2354.763c0.328-13.896-2.735-24.839-9.246-32.772c-6.51-7.933-16.085-11.872-28.832-11.872
		c-6.566,0-12.31,1.204-17.234,3.666c-4.924,2.462-9.027,5.745-12.365,9.848c-3.337,4.049-5.908,8.808-7.714,14.17
		c-1.805,5.416-2.845,11.052-3.064,16.96H1622.919L1622.919,2354.763z M1814.132,2441.042c0,0.875-0.219,1.586-0.657,2.188
		c-0.438,0.547-1.094,1.094-2.079,1.532c-0.985,0.383-2.298,0.711-4.048,0.93c-1.696,0.219-3.83,0.328-6.401,0.328
		c-2.735,0-4.924-0.109-6.62-0.328c-1.751-0.219-3.063-0.547-4.048-0.93c-0.985-0.438-1.641-0.985-2.079-1.532
		c-0.438-0.602-0.657-1.313-0.657-2.188v-84.528c0-8.206-0.656-14.881-1.915-19.86c-1.258-5.033-3.119-9.356-5.581-13.021
		c-2.462-3.611-5.58-6.401-9.465-8.316c-3.885-1.915-8.371-2.9-13.459-2.9c-6.62,0-13.185,2.353-19.75,7.058
		c-6.62,4.705-13.514,11.598-20.736,20.681v100.886c0,0.875-0.219,1.586-0.656,2.188c-0.438,0.547-1.094,1.094-2.079,1.532
		c-0.985,0.383-2.298,0.711-4.049,0.93c-1.696,0.219-3.884,0.328-6.565,0.328c-2.626,0-4.76-0.109-6.456-0.328
		c-1.75-0.219-3.118-0.547-4.103-0.93c-1.04-0.438-1.751-0.985-2.134-1.532c-0.383-0.602-0.547-1.313-0.547-2.188v-144.326
		c0-0.875,0.164-1.587,0.492-2.188c0.329-0.547,0.93-1.094,1.915-1.586c0.985-0.492,2.189-0.821,3.721-0.985
		c1.477-0.164,3.501-0.219,5.963-0.219c2.353,0,4.322,0.055,5.854,0.219c1.587,0.164,2.79,0.492,3.666,0.985
		c0.821,0.492,1.478,1.039,1.86,1.586c0.328,0.602,0.547,1.313,0.547,2.188v19.094c8.097-9.136,16.14-15.811,24.237-20.024
		c8.042-4.212,16.139-6.346,24.346-6.346c9.574,0,17.671,1.641,24.237,4.869c6.565,3.283,11.872,7.66,15.92,13.076
		c4.049,5.471,6.948,11.872,8.699,19.203s2.626,16.139,2.626,26.37V2441.042L1814.132,2441.042z M1934.331,2430.319
		c0,3.119-0.219,5.581-0.657,7.386c-0.383,1.805-1.039,3.173-1.915,3.994c-0.82,0.875-2.133,1.696-3.829,2.407
		c-1.696,0.766-3.666,1.368-5.854,1.86c-2.189,0.492-4.486,0.875-6.948,1.204c-2.462,0.328-4.869,0.492-7.331,0.492
		c-7.495,0-13.897-0.984-19.204-2.954c-5.307-1.969-9.684-4.979-13.13-8.972c-3.392-3.994-5.854-9.082-7.44-15.21
		c-1.532-6.128-2.298-13.349-2.298-21.665v-84.145h-20.298c-1.587,0-2.899-0.876-3.884-2.572c-0.93-1.696-1.422-4.486-1.422-8.371
		c0-2.024,0.109-3.72,0.383-5.088c0.273-1.423,0.656-2.572,1.039-3.502c0.438-0.875,1.04-1.532,1.696-1.915
		c0.711-0.383,1.477-0.547,2.352-0.547h20.134v-34.249c0-0.766,0.164-1.477,0.547-2.079c0.383-0.656,1.094-1.204,2.134-1.696
		c0.985-0.492,2.352-0.821,4.103-1.039c1.696-0.219,3.83-0.328,6.456-0.328c2.681,0,4.869,0.109,6.565,0.328
		c1.751,0.219,3.064,0.547,4.049,1.039s1.642,1.04,2.079,1.696c0.438,0.602,0.657,1.313,0.657,2.079v34.249h36.765
		c0.875,0,1.586,0.164,2.243,0.547c0.602,0.383,1.204,1.04,1.642,1.915c0.492,0.93,0.821,2.079,1.04,3.502
		c0.219,1.368,0.328,3.064,0.328,5.088c0,3.885-0.493,6.675-1.422,8.371c-0.985,1.696-2.243,2.572-3.83,2.572h-36.765v80.26
		c0,9.903,1.477,17.398,4.376,22.431c2.9,5.088,8.152,7.605,15.702,7.605c2.407,0,4.596-0.219,6.511-0.711
		c1.915-0.493,3.61-0.985,5.088-1.532c1.477-0.547,2.735-1.04,3.83-1.532c1.039-0.492,2.024-0.711,2.845-0.711
		c0.547,0,1.04,0.11,1.532,0.383c0.438,0.273,0.821,0.766,1.094,1.532c0.273,0.766,0.492,1.751,0.711,3.064
		C1934.222,2426.762,1934.331,2428.404,1934.331,2430.319L1934.331,2430.319z"/>
	
		<path style="fill:none;stroke:#000000;stroke-width:73.5245;stroke-linecap:round;stroke-linejoin:round;stroke-miterlimit:2.6131;" d="
		M2051.26,863.324V628.481c0-22.952,17.617-41.75,39.138-41.722l107.578-0.014c97.033,0.014,145.674,79.249,145.868,158.678
		c0.181,79.694-48.461,159.623-145.882,159.623l-107.564,0.014C2068.877,905.047,2051.232,886.276,2051.26,863.324L2051.26,863.324z
		 M728.37,889.958L728.37,889.958l37.36-26.453c9.975-7.072,15.686-17.714,16.353-30.469c0.653-12.754-5.419-22.688-13.171-32.205
		l-20.299-24.842c-7.294-9.002-13.213-18.061-13.199-30.107c0-12.004,5.863-21.077,13.199-30.052l20.313-24.856
		c7.766-9.531,13.81-19.451,13.157-32.191c-0.667-12.726-6.391-23.411-16.353-30.469l-37.36-26.467
		c-13.616-9.642-29.996-11.309-45.279-4.612L426.601,709.731c-14.033,6.155-22.716,19.993-22.716,36.179
		c0,16.186,8.669,30.024,22.716,36.165l256.503,112.496C698.387,901.281,714.754,899.587,728.37,889.958L728.37,889.958z
		 M696.818,898.322l1393.58,6.739 M2090.398,586.759l-1389.579,6.447"/>
	
		<path style="fill:none;stroke:#000000;stroke-width:73.5176;stroke-linecap:round;stroke-linejoin:round;stroke-miterlimit:2.6131;" d="
		M1620.601,412.255v-997.3c0-40.502-14.444-75.357-43.077-103.99l-618.294-618.31c-28.649-28.633-63.488-43.062-103.99-43.062
		H-555.416c-129.44,0-234.838,105.382-234.838,234.838v2335.706v309.491c0,128.912,105.926,234.837,234.838,234.837h1941.18
		c129.408,0,234.838-105.414,234.838-234.837v-460.757 M884.337-1350.406v163.324v392.797c0,113.828,92.809,206.668,206.653,206.668
		h392.798l136.814,2.572"/>
</g>
</svg>
