<?xml version="1.0" encoding="utf-8"?>
<!-- Generator: Adobe Illustrator 27.5.0, SVG Export Plug-In . SVG Version: 6.00 Build 0)  -->
<svg version="1.1" id="Layer_1" xmlns="http://www.w3.org/2000/svg" xmlns:xlink="http://www.w3.org/1999/xlink" x="0px" y="0px"
	 viewBox="0 0 4000 4000" style="enable-background:new 0 0 4000 4000;" xml:space="preserve">
<rect style="fill:#FFFFFF;" width="4000" height="4000"/>
<g>
	
		<polygon style="fill:none;stroke:#141414;stroke-width:96.6988;stroke-linecap:round;stroke-linejoin:round;stroke-miterlimit:10;" points="
		1324.887,397.74 819.832,1035.623 1324.887,1035.623 	"/>
	
		<path style="fill:none;stroke:#141414;stroke-width:96.6988;stroke-linecap:round;stroke-linejoin:round;stroke-miterlimit:10;" d="
		M1324.887,396.95h1611.424c135.371,0,245.11,109.74,245.11,245.111V3356.94c0,135.371-109.739,245.11-245.11,245.11H1064.796
		c-135.371,0-245.112-109.74-245.112-245.11V1035.622"/>
	
		<polygon style="fill:none;stroke:#141414;stroke-width:96.6988;stroke-linecap:round;stroke-linejoin:round;stroke-miterlimit:10;" points="
		3181.422,2537.192 819.832,2537.192 1733.033,1181.948 2282.921,1823.289 2505.609,1449.551 	"/>
	
		<ellipse transform="matrix(0.7071 -0.7071 0.7071 0.7071 5.0307 1803.33)" style="fill:none;stroke:#141414;stroke-width:96.6988;stroke-linecap:round;stroke-linejoin:round;stroke-miterlimit:10;" cx="2179.327" cy="895.592" rx="178.774" ry="178.774"/>
	<g>
		<path d="M1543.311,3168.963c0,96.373-34.236,104.355-72.377,104.355c-23.198,0-40.665-5.819-47.098-8.32l-22.372-8.698
			l-16.888,92.238l14.896,6.096c19.247,7.875,50.774,13.374,76.667,13.374c52.34,0,93.437-14.408,122.148-42.823
			c32.768-32.432,49.383-83.241,49.383-151.016v-355.207h-104.36V3168.963z"/>
		<path d="M2013.517,2861.848c-34.455-30.923-86.157-46.604-153.668-46.604c-45.005,0-87.885,3.344-127.446,9.938l-16.571,2.762
			v531.885h104.36v-197.445c10.675,0.937,21.607,1.126,32.221,1.126c70.933,0,130.419-21.717,167.528-61.159
			c29.301-30.232,44.16-70.869,44.16-120.782C2064.101,2932.653,2046.139,2890.144,2013.517,2861.848z M1933.288,3048.812
			c-17.966,15.035-45.418,22.984-79.388,22.984c-13.184,0-24.346-0.587-33.709-1.784v-161.774c10.017-1.161,23.814-2.02,41.144-2.02
			c44.891,0,98.404,13.591,98.404,78.328C1959.74,3012.499,1950.84,3034.123,1933.288,3048.812z"/>
		<path d="M2327.839,3056.923v91.717h101.876v115.958c-11.599,3.356-32.374,7.232-66.43,7.232
			c-108.646,0-173.51-68.2-173.51-182.435c0-112.072,69.62-181.691,181.691-181.691c51.471,0,81.945,10.612,102.745,19.857
			l20.659,9.183l26.81-90.636l-15.176-7.326c-25.061-12.097-73.303-25.024-133.552-25.024c-86.388,0-159.824,27.329-212.364,79.034
			c-51.212,50.397-78.492,119.376-78.891,199.578c0,81.078,27.687,154.309,76.04,200.995
			c50.523,48.227,116.299,71.669,201.088,71.669c66.724,0,124.18-15.595,160.63-28.68l13.132-4.714v-274.718H2327.839z"/>
	</g>
</g>
</svg>
