<svg id="eb571d96-1798-4f05-b8c1-6dd6568edd95" height="512" viewBox="0 0 64 64" width="512" xmlns="http://www.w3.org/2000/svg" data-name="line"><path d="m34.80664 42.03613a1.00009 1.00009 0 0 0 1.41412 1.414l6.15131-6.1513a4.14784 4.14784 0 0 0 -5.86621-5.86566l-6.5127 6.51263c-4.40728 4.26325-1.18328 12.05335 4.95038 11.9516a6.95263 6.95263 0 0 0 4.95-2.05072l5.33985-5.33984c9.15326-9.9599-4.46277-23.55756-14.39606-14.39594l-5.94281 5.94281a1.0001 1.0001 0 0 0 1.41412 1.41406l5.94281-5.94287a8.17968 8.17968 0 1 1 11.5677 11.56793l-5.33966 5.33979a4.96641 4.96641 0 0 1 -3.53613 1.46484 5.02619 5.02619 0 0 1 -3.53595-8.53766l6.51251-6.51263a2.16941 2.16941 0 0 1 3.66693 1.51867 2.13571 2.13571 0 0 1 -.62884 1.51893z"/><path d="m53.26758 21.8559a4.36516 4.36516 0 0 0 -.86231-1.27234l-6.19629-6.207a4.36246 4.36246 0 0 0 -2.95117-1.21631h-18.84033a5.24085 5.24085 0 0 0 -5.23 5.23974v3.43018a1 1 0 0 0 2 0v-3.43017a3.23825 3.23825 0 0 1 3.23-3.23974s19.05109.01611 19.15576.032v3.85074a4.18182 4.18182 0 0 0 4.17776 4.17679h3.8518c.21.52862-.078 31.05377.03522 31.54034a3.244 3.244 0 0 1 -3.24056 3.23987h-23.98a3.23867 3.23867 0 0 1 -3.23-3.24023v-28.92963a1 1 0 0 0 -2 0v28.92963a5.241 5.241 0 0 0 5.23002 5.24023h23.98a5.24589 5.24589 0 0 0 5.24017-5.24023v-31.21967a4.15418 4.15418 0 0 0 -.37007-1.6842zm-5.5166-.63611a2.17952 2.17952 0 0 1 -2.17774-2.17679v-2.47189l4.64136 4.64868z"/><path d="m15.94775 48.83936a3.278 3.278 0 0 1 -3.58538-3.23636c-.00007 0 .01794-31.43878.03271-31.54145h3.8476a4.18212 4.18212 0 0 0 4.17724-4.17724v-3.85031c.10352-.01563 19.15528-.03394 19.15528-.03394a3.36115 3.36115 0 0 1 3.2362 3.9458 1.00018 1.00018 0 0 0 2.00012-.00006 5.33363 5.33363 0 0 0 -5.23639-5.94568l-18.84027-.00006a4.1988 4.1988 0 0 0 -2.95215 1.2251l-6.19531 6.19531a4.23823 4.23823 0 0 0 -1.225 2.95215v31.23038a5.24236 5.24236 0 0 0 5.23626 5.23633 1.02548 1.02548 0 1 0 .34909-1.99997zm2.47217-41.42328v2.46826a2.17952 2.17952 0 0 1 -2.17724 2.17724h-2.46827z"/></svg>