<svg id="Capa_1" enable-background="new 0 0 512 512" height="512" viewBox="0 0 512 512" width="512" xmlns="http://www.w3.org/2000/svg"><g><path d="m467 242h-16v-107c0-3.895-1.58-7.794-4.393-10.606 0 0 0 0 0-.001l-120-120c-2.877-2.875-6.795-4.393-10.607-4.393h-210c-24.813 0-45 20.187-45 45v197h-16c-24.813 0-45 20.187-45 45v180c0 24.813 20.187 45 45 45h422c24.813 0 45-20.187 45-45v-180c0-24.813-20.187-45-45-45zm-136-190.787 68.787 68.787h-53.787c-8.271 0-15-6.729-15-15zm-240-6.213c0-8.271 6.729-15 15-15h195v75c0 24.813 20.187 45 45 45h75v92h-330zm391 422c0 8.271-6.729 15-15 15h-422c-8.271 0-15-6.729-15-15v-180c0-8.271 6.729-15 15-15h422c8.271 0 15 6.729 15 15z"/><path d="m136 332c8.271 0 15 6.729 15 15 0 8.284 6.716 15 15 15s15-6.716 15-15c0-24.813-20.187-45-45-45s-45 20.187-45 45v60c0 24.813 20.187 45 45 45s45-20.187 45-45c0-8.284-6.716-15-15-15s-15 6.716-15 15c0 8.271-6.729 15-15 15s-15-6.729-15-15v-60c0-8.271 6.729-15 15-15z"/><path d="m256 362c-8.271 0-15-6.729-15-15s6.729-15 15-15c4.007 0 7.773 1.56 10.606 4.393 5.856 5.858 15.354 5.858 21.213 0 5.858-5.858 5.858-15.355 0-21.213-8.499-8.499-19.798-13.18-31.819-13.18-24.813 0-45 20.187-45 45s20.187 45 45 45c8.271 0 15 6.729 15 15s-6.729 15-15 15c-4.007 0-7.773-1.56-10.606-4.393-5.856-5.858-15.354-5.858-21.213 0-5.858 5.858-5.858 15.355 0 21.213 8.499 8.499 19.798 13.18 31.819 13.18 24.813 0 45-20.187 45-45s-20.187-45-45-45z"/><path d="m409.638 302.448c-8.027-2.006-16.181 2.876-18.189 10.914l-15.449 61.791-15.448-61.791c-2.01-8.038-10.158-12.923-18.189-10.914-8.037 2.009-12.924 10.153-10.914 18.19l30 120c1.668 6.677 7.668 11.362 14.551 11.362s12.883-4.685 14.552-11.362l30-120c2.01-8.037-2.877-16.181-10.914-18.19z"/></g></svg>