<svg id="Capa_1" enable-background="new 0 0 499.859 499.859" height="512" viewBox="0 0 499.859 499.859" width="512" xmlns="http://www.w3.org/2000/svg"><g><path d="m425.57 81.77-72.983-72.984c-5.666-5.665-13.201-8.786-21.213-8.786h-235.871c-16.542 0-30 13.458-30 30v206.092c0 12.84 20 12.859 20 0v-206.092c0-5.514 4.486-10 10-10h232.862v56.421c0 16.542 13.458 30 30 30h55.991v363.438c0 5.514-4.486 10-10 10h-308.853c-5.514 0-10-4.486-10-10v-152.971c0-12.84-20-12.859-20 0v152.971c0 16.542 13.458 30 30 30h308.854c16.542 0 30-13.458 30-30v-366.876c-.001-8.014-3.121-15.548-8.787-21.213zm-77.205-5.349v-43.572l53.572 53.572h-43.572c-5.514 0-10-4.486-10-10z"/><path d="m67.783 281.694c2.333 3.56 6.899 5.214 10.978 4.076 4.196-1.171 7.225-5.015 7.327-9.381.209-8.901-11.035-13.644-17.216-7.156-3.195 3.353-3.66 8.597-1.089 12.461z"/><path d="m152.872 249.029v82.099c0 15.81 12.862 28.672 28.672 28.672h102.529c15.81 0 28.672-12.862 28.672-28.672v-82.099c0-15.81-12.862-28.671-28.672-28.671h-.516c-3.371-22.652 14.731-43.767 37.676-43.767 21.008 0 38.1 17.091 38.1 38.1 0 4.16-.663 8.243-1.971 12.136-4.089 12.172 14.867 18.556 18.959 6.368 1.998-5.95 3.012-12.176 3.012-18.504 0-32.036-26.063-58.1-58.1-58.1-33.837 0-61.074 30.122-57.815 63.767h-81.874c-15.81 0-28.672 12.862-28.672 28.671zm139.873 0v82.099c0 4.782-3.891 8.672-8.672 8.672h-102.529c-4.781 0-8.672-3.89-8.672-8.672v-82.099c0-4.781 3.891-8.671 8.672-8.671h102.529c4.781 0 8.672 3.89 8.672 8.671z"/><path d="m234.14 270.023c-5.522 0-10 4.477-10 10v20.11c0 12.84 20 12.859 20 0v-20.11c0-5.523-4.477-10-10-10z"/></g></svg>