<svg fill="none" height="512" viewBox="0 0 32 32" width="512" xmlns="http://www.w3.org/2000/svg"><path d="m6 3v26h16v-2h-14v-22h10v6h6v2h2v-3.40039l-.3008-.29883-6-6-.2988-.30078zm14 3.40039 2.5996 2.59961h-2.5996zm-10 6.59961v2h12v-2zm17 2v2c-1.7.3-3 1.7-3 3.5 0 2 1.5 3.5 3.5 3.5h1c.8 0 1.5.7 1.5 1.5s-.7 1.5-1.5 1.5h-3.5v2h2v2h2v-2c1.7-.3 3-1.7 3-3.5 0-2-1.5-3.5-3.5-3.5h-1c-.8 0-1.5-.7-1.5-1.5s.7-1.5 1.5-1.5h3.5v-2h-2v-2zm-17 3v2h7v-2zm9 0v2h3v-2zm-9 4v2h7v-2zm9 0v2h3v-2z" fill="rgb(0,0,0)"/></svg>