<svg height="512" viewBox="0 0 64 64" width="512" xmlns="http://www.w3.org/2000/svg"><g id="Layer_77" data-name="Layer 77"><path d="m42.78 34.49a1.51 1.51 0 0 0 -1.14-.49h-3.28v-4.57a1.5 1.5 0 0 0 -1.5-1.5h-9.72a1.5 1.5 0 0 0 -1.5 1.5v4.57h-3.28a1.5 1.5 0 0 0 -1.49 1.71l2.6 17.82a1.5 1.5 0 0 0 1.53 1.26h14.1a1.5 1.5 0 0 0 1.48-1.29l2.6-17.82a1.51 1.51 0 0 0 -.4-1.19zm-14.14-3.56h6.72v3h-6.72zm9.11 20.86h-11.5l-2.16-14.79h15.82z"/><path d="m55.47 17.06-14.1-14.06a1.51 1.51 0 0 0 -1.08-.46h-27.22a5 5 0 0 0 -5 5v49a5 5 0 0 0 5 5h37.86a5 5 0 0 0 5-5v-38.4a2.94 2.94 0 0 0 -.46-1.08zm-13.68-9.43 9 9h-9zm11.14 48.87a2 2 0 0 1 -2 2h-37.86a2 2 0 0 1 -2-2v-49a2 2 0 0 1 2-2h25.72v12.64a1.5 1.5 0 0 0 1.5 1.5h12.64z"/></g></svg>