<svg clip-rule="evenodd" fill-rule="evenodd" stroke-linejoin="round" stroke-miterlimit="2" viewBox="0 0 96 96" xmlns="http://www.w3.org/2000/svg"><g transform="translate(-4712 -272)"><path d="m4780.53 367.945c.68.16 1.38-.036 1.87-.52.49-.483.7-1.186.55-1.859-.88-3.989.66-8.134 3.91-10.606 5.69-4.215 9.14-10.113 9.14-16.389 0-12.316-12.43-22.571-28-22.571s-28 10.255-28 22.571c0 12.317 12.52 22.429 28.08 22.429h1.45c3.2 3.887 7.34 6.069 11 6.945zm-1.82-4.833c-2.35-1.052-4.72-2.777-6.61-5.308-.37-.506-.97-.804-1.6-.804h-2.42c-13.13 0-24.08-8.036-24.08-18.429 0-10.392 10.86-18.571 24-18.571s24 8.179 24 18.571c0 5.077-2.93 9.774-7.52 13.176 0 .004-.01.008-.01.012-3.61 2.731-5.7 6.948-5.76 11.352zm-50.71-67.112h10c5.52 0 10-4.477 10-10v-10h30c3.31 0 6 2.686 6 6v34c0 1.104.9 2 2 2s2-.896 2-2v-34c0-5.523-4.48-10-10-10h-32c-.53 0-1.04.211-1.41.586 0 0-20 20-20 20-.38.375-.59.884-.59 1.414v56c0 5.523 4.48 10 10 10h11c1.1 0 2-.896 2-2s-.9-2-2-2h-11c-3.31 0-6-2.686-6-6zm52.5 39.5c1.93 0 3.5 1.568 3.5 3.5s-1.57 3.5-3.5 3.5-3.5-1.568-3.5-3.5 1.57-3.5 3.5-3.5zm-12.5 0c1.93 0 3.5 1.568 3.5 3.5s-1.57 3.5-3.5 3.5-3.5-1.568-3.5-3.5 1.57-3.5 3.5-3.5zm-12.5 0c-1.93 0-3.5 1.568-3.5 3.5s1.57 3.5 3.5 3.5 3.5-1.568 3.5-3.5-1.57-3.5-3.5-3.5zm-11.5-56.672-13.17 13.172h7.17c3.31 0 6-2.686 6-6z"/></g></svg>