<svg id="Layer_1" enable-background="new 0 0 512 512" height="512" viewBox="0 0 512 512" width="512" xmlns="http://www.w3.org/2000/svg"><path d="m493.229 150.654-148.279-148.308c-1.5-1.5-3.533-2.343-5.653-2.343h-167.953c-39.091 0-70.895 31.804-70.895 70.895v140.314h-62.22c-12.02 0-21.799 9.779-21.799 21.799v125.32c0 12.02 9.779 21.799 21.799 21.799h62.221v60.973c0 39.091 31.804 70.895 70.895 70.895h253.332c39.091 0 70.895-31.804 70.895-70.895v-284.797c-.002-2.12-.844-4.153-2.343-5.652zm-145.938-123.355 120.989 121.013h-112.997c-4.407 0-7.992-3.599-7.992-8.021zm-314.873 331.032v-125.32c0-3.204 2.606-5.811 5.811-5.811h341.604c3.204 0 5.811 2.606 5.811 5.811v125.32c0 3.204-2.606 5.811-5.811 5.811h-341.604c-3.205 0-5.811-2.607-5.811-5.811zm392.258 137.678h-253.332c-30.275 0-54.906-24.631-54.906-54.906v-60.973h263.395c12.02 0 21.799-9.779 21.799-21.799v-125.32c0-12.02-9.779-21.799-21.799-21.799h-263.395v-140.315c0-30.275 24.631-54.906 54.906-54.906h159.959v124.299c0 13.239 10.758 24.01 23.98 24.01h124.299v276.803c0 30.275-24.631 54.906-54.906 54.906zm-306.51-243.24v85.805c0 4.415-3.579 7.994-7.994 7.994s-7.994-3.579-7.994-7.994v-34.894h-35.545v34.894c0 4.415-3.579 7.994-7.994 7.994s-7.994-3.579-7.994-7.994v-85.805c0-4.415 3.579-7.994 7.994-7.994s7.994 3.579 7.994 7.994v34.923h35.545v-34.923c0-4.415 3.579-7.994 7.994-7.994s7.994 3.579 7.994 7.994zm79.711 0c0 4.415-3.579 7.994-7.994 7.994h-17.773v77.811c0 4.415-3.579 7.994-7.994 7.994s-7.994-3.579-7.994-7.994v-77.811h-17.773c-4.415 0-7.994-3.579-7.994-7.994s3.579-7.994 7.994-7.994h51.535c4.414-.001 7.993 3.579 7.993 7.994zm87.233-.513c.014.207.019.416.017.624v85.693c0 4.415-3.579 7.994-7.994 7.994s-7.994-3.579-7.994-7.994v-60.41l-15.443 22.102c-1.495 2.139-3.94 3.414-6.551 3.415-.001 0-.002 0-.002 0-2.609 0-5.055-1.274-6.551-3.412l-15.475-22.125v60.431c0 4.415-3.579 7.994-7.994 7.994s-7.994-3.579-7.994-7.994v-85.694c-.002-.209.003-.417.017-.624.072-1.143.385-2.22.887-3.182.501-.963 1.204-1.836 2.099-2.55.776-.621 1.671-1.101 2.645-1.399.002 0 .003-.001.005-.001l.001-.001c.94-.289 1.92-.394 2.876-.331 1.114.074 2.166.376 3.109.859.979.501 1.868 1.21 2.593 2.116.133.165.259.336.379.512l23.401 33.455 23.377-33.453c.118-.174.243-.343.374-.507.703-.881 1.562-1.576 2.507-2.075.969-.513 2.056-.832 3.209-.907 1.012-.068 2.051.058 3.043.387.907.301 1.743.761 2.474 1.345.895.714 1.599 1.586 2.099 2.548.502.962.814 2.04.886 3.184zm82.335 86.317c0 4.415-3.579 7.994-7.994 7.994h-51.535c-4.415 0-7.994-3.579-7.994-7.994v-85.805c0-4.415 3.579-7.994 7.994-7.994s7.994 3.579 7.994 7.994v77.811h43.541c4.415 0 7.994 3.579 7.994 7.994z"/></svg>