<svg clip-rule="evenodd" fill-rule="evenodd" height="512" stroke-linejoin="round" stroke-miterlimit="2" viewBox="0 0 1130 1113" width="512" xmlns="http://www.w3.org/2000/svg"><path d="m957.596 277.077c.001-.259-.003-.518-.013-.776l-.004-.098c-.117-2.712-.857-5.263-2.081-7.514l-.053-.096c-.776-1.41-1.756-2.726-2.932-3.902l-259.6-259.6-.249.601c-1.482-1.629-3.269-2.976-5.271-3.948-1.551-1.1-3.754-1.736-6.774-1.736-.059 0-.118.004-.175.011-.206-.007-.412-.011-.619-.011h-434.479c-47.688 0-86.346 38.649-86.346 86.363v938.371c0 22.914 9.1 44.859 25.283 61.063.003.003.006.005.008.008 16.187 16.187 38.157 25.291 61.055 25.291h625.887c47.692 0 86.363-38.649 86.363-86.366zm-295.125-242.36h-417.125c-28.521 0-51.638 23.118-51.638 51.654v938.371c0 13.709 5.449 26.837 15.13 36.532 9.679 9.678 22.816 15.122 36.508 15.122h625.887c28.525 0 51.654-23.118 51.654-51.658v-730.421h-174.066c-22.902 0-44.866-9.104-61.057-25.29-.003-.003-.007-.006-.01-.009-16.183-16.204-25.283-38.17-25.283-61.068zm-260.238 807.221v145.625c0 13.679-3.4 24.125-10.2 31.337s-16.75 10.817-29.854 10.817c-5.521 0-10.837-.7-15.946-2.1v-23.738c3.13.742 6.675 1.113 10.63 1.113 9.975 0 15.083-5.438 15.329-16.317v-146.737zm157.121 65.641c0-13.104 2.596-24.908 7.788-35.416 5.196-10.509 12.487-18.588 21.883-24.23 9.396-5.645 20.192-8.47 32.388-8.47 18.049 0 32.7 5.812 43.949 17.433 11.25 11.617 17.325 27.029 18.234 46.233l.125 7.046c0 13.188-2.538 24.971-7.604 35.354-5.071 10.388-12.321 18.421-21.759 24.109-9.437 5.687-20.333 8.529-32.695 8.529-18.875 0-33.975-6.284-45.309-18.854-11.333-12.567-17-29.317-17-50.25zm-50.067 31.771c0-5.358-2.204-9.437-6.612-12.237-4.408-2.805-11.725-5.275-21.942-7.417-10.221-2.146-18.75-4.863-25.591-8.163-15-7.25-22.5-17.758-22.5-31.52 0-11.538 4.862-21.184 14.587-28.93s22.088-11.62 37.088-11.62c15.987 0 28.908 3.958 38.754 11.866 9.85 7.913 14.775 18.175 14.775 30.784h-30.042c0-5.767-2.141-10.571-6.429-14.4-4.283-3.834-9.971-5.75-17.058-5.75-6.592 0-11.971 1.525-16.134 4.575-4.162 3.05-6.241 7.129-6.241 12.237 0 4.617 1.937 8.2 5.808 10.754 3.875 2.554 11.704 5.134 23.492 7.729 11.783 2.596 21.033 5.684 27.75 9.271 6.716 3.584 11.704 7.892 14.958 12.917 3.258 5.029 4.883 11.125 4.883 18.296 0 12.033-4.983 21.779-14.958 29.237-9.971 7.458-23.033 11.188-39.188 11.188-10.962 0-20.725-1.98-29.295-5.934-8.575-3.954-15.25-9.396-20.03-16.316-4.779-6.925-7.17-14.384-7.17-22.38h29.175c.412 7.092 3.091 12.55 8.037 16.384 4.946 3.829 11.496 5.746 19.654 5.746 7.913 0 13.93-1.505 18.05-4.513 4.121-3.008 6.179-6.941 6.179-11.804zm-182.787 4.696c5.604 0 9.929 1.587 12.979 4.762 3.05 3.171 4.575 7.146 4.575 11.93 0 4.695-1.525 8.591-4.575 11.679-3.05 3.091-7.375 4.637-12.979 4.637-5.358 0-9.604-1.525-12.733-4.575-3.134-3.05-4.7-6.962-4.7-11.741 0-4.784 1.525-8.759 4.575-11.93 3.05-3.175 7.333-4.762 12.858-4.762zm410.5-102.108.867 15.45c9.887-11.95 22.866-17.925 38.937-17.925 27.859 0 42.034 15.95 42.529 47.841v88.392h-30.041v-86.658c0-8.492-1.834-14.775-5.5-18.855-3.667-4.079-9.663-6.12-17.988-6.12-12.116 0-21.141 5.483-27.075 16.441v95.192h-30.037v-133.758zm-147.604 68.237c0 13.763 2.842 24.538 8.529 32.325 5.688 7.792 13.6 11.683 23.738 11.683 10.133 0 18.025-3.954 23.67-11.866 5.646-7.913 8.471-19.492 8.471-34.738 0-13.516-2.908-24.229-8.716-32.141-5.813-7.913-13.7-11.867-23.675-11.867-9.805 0-17.596 3.891-23.363 11.679-5.771 7.792-8.654 19.429-8.654 34.925zm-219.8-102.975c0-4.617 1.462-8.45 4.387-11.5 2.93-3.05 7.109-4.571 12.55-4.571 5.438 0 9.642 1.521 12.609 4.571 2.966 3.05 4.45 6.883 4.45 11.5 0 4.529-1.484 8.3-4.45 11.308-2.967 3.009-7.171 4.513-12.609 4.513-5.441 0-9.62-1.504-12.55-4.513-2.925-3.008-4.387-6.779-4.387-11.308zm327.583-748.758 201.166 201.166h-149.524c-13.696 0-26.83-5.444-36.513-15.122-9.681-9.696-15.129-22.836-15.129-36.536z"/></svg>