<svg id="_x31__x2C_5" enable-background="new 0 0 24 24" viewBox="0 0 24 24" xmlns="http://www.w3.org/2000/svg"><g><path d="m3.75 21c-.414 0-.75-.336-.75-.75v-4.5c0-.414.336-.75.75-.75h1.25c1.103 0 2 .897 2 2s-.897 2-2 2h-.5v1.25c0 .414-.336.75-.75.75zm.75-3.5h.5c.276 0 .5-.225.5-.5s-.224-.5-.5-.5h-.5z"/></g><g><path d="m17.25 24h-14.5c-1.517 0-2.75-1.233-2.75-2.75v-18.5c0-1.517 1.233-2.75 2.75-2.75h12.09c.414 0 .75.336.75.75s-.336.75-.75.75h-12.09c-.689 0-1.25.561-1.25 1.25v18.5c0 .689.561 1.25 1.25 1.25h14.5c.689 0 1.25-.561 1.25-1.25v-7.75c0-.414.336-.75.75-.75s.75.336.75.75v7.75c0 1.517-1.233 2.75-2.75 2.75z"/></g><g><path d="m10.25 21h-1.5c-.414 0-.75-.336-.75-.75v-4.5c0-.414.336-.75.75-.75h1.5c.965 0 1.75.785 1.75 1.75v2.5c0 .965-.785 1.75-1.75 1.75zm-.75-1.5h.75c.138 0 .25-.112.25-.25v-2.5c0-.138-.112-.25-.25-.25h-.75z"/></g><g><path d="m13.75 21c-.414 0-.75-.336-.75-.75v-3.5c0-.965.785-1.75 1.75-1.75h1.5c.414 0 .75.336.75.75s-.336.75-.75.75h-1.5c-.138 0-.25.112-.25.25v3.5c0 .414-.336.75-.75.75z"/></g><g><path d="m16.25 19h-2.5c-.414 0-.75-.336-.75-.75s.336-.75.75-.75h2.5c.414 0 .75.336.75.75s-.336.75-.75.75z"/></g><g><path d="m22.25 11h-5.5c-.965 0-1.75-.785-1.75-1.75v-3.5c0-.965.785-1.75 1.75-1.75h5.5c.965 0 1.75.785 1.75 1.75v3.5c0 .965-.785 1.75-1.75 1.75zm-5.5-5.5c-.138 0-.25.112-.25.25v3.5c0 .138.112.25.25.25h5.5c.138 0 .25-.112.25-.25v-3.5c0-.138-.112-.25-.25-.25z"/></g><g><path d="m21.25 5.5h-3.5c-.414 0-.75-.336-.75-.75v-2.25c0-1.379 1.122-2.5 2.5-2.5s2.5 1.121 2.5 2.5v2.25c0 .414-.336.75-.75.75zm-2.75-1.5h2v-1.5c0-.552-.449-1-1-1s-1 .448-1 1z"/></g></svg>