<svg id="Layer_1" height="512" viewBox="0 0 512 512" width="512" xmlns="http://www.w3.org/2000/svg" data-name="Layer 1"><path d="m138.27 188.331a8.016 8.016 0 0 0 8.016-8.016v-25.345h17.919a33.369 33.369 0 1 0 0-66.737h-25.935a8.016 8.016 0 0 0 -8.016 8.016v84.066a8.016 8.016 0 0 0 8.016 8.016zm43.273-66.731a17.357 17.357 0 0 1 -17.338 17.336h-17.919v-34.672h17.919a17.358 17.358 0 0 1 17.338 17.336z"/><path d="m221.542 188.331a8.031 8.031 0 0 0 1.465-.14h26a49.979 49.979 0 1 0 0-99.958h-27.465a8.016 8.016 0 0 0 -8.016 8.016v84.066a8.016 8.016 0 0 0 8.016 8.016zm61.412-50.119a33.986 33.986 0 0 1 -33.948 33.947h-19.448v-67.895h19.448a33.986 33.986 0 0 1 33.948 33.948z"/><path d="m325.938 188.331a8.016 8.016 0 0 0 8.016-8.016v-36.415h25.2a8.016 8.016 0 1 0 0-16.031h-25.2v-23.6h39.776a8.016 8.016 0 1 0 0-16.031h-45.93a9.891 9.891 0 0 0 -9.88 9.881v82.2a8.016 8.016 0 0 0 8.018 8.012z"/><path d="m512 193.482v-.082c0-.088-.01-.174-.013-.262a8 8 0 0 0 -3.456-6.922l-49.631-34.18v-123.881a28.191 28.191 0 0 0 -28.168-28.155h-349.464a28.191 28.191 0 0 0 -28.168 28.155v123.881l-49.631 34.184a8 8 0 0 0 -3.456 6.922c0 .088-.013.174-.013.262v281.483a37.163 37.163 0 0 0 37.127 37.113h437.746a37.163 37.163 0 0 0 37.127-37.113zm-21.6-.285-31.5 21.695v-43.392zm-409.132-177.166h349.464a12.142 12.142 0 0 1 12.133 12.124v194.962a7.992 7.992 0 0 0 .414 2.531l-153.923 106.011a59.134 59.134 0 0 1 -66.712 0l-153.509-105.726v-197.778a12.142 12.142 0 0 1 12.133-12.124zm-28.168 198.861-31.5-21.692 31.5-21.7zm-15.973 281.077a21.085 21.085 0 0 1 -4.387-.466l122.125-137.726a8.015 8.015 0 0 0 -11.994-10.636l-123.43 139.199a20.934 20.934 0 0 1 -3.41-11.453v-266.061l197.519 136.036a75.258 75.258 0 0 0 84.9 0l197.519-136.036v266.061a20.934 20.934 0 0 1 -3.41 11.453l-123.43-139.2a8.015 8.015 0 1 0 -11.994 10.636l122.125 137.724a21.085 21.085 0 0 1 -4.387.466z"/></svg>