<?xml version="1.0" encoding="UTF-8"?>
<svg xmlns="http://www.w3.org/2000/svg" id="Line" viewBox="0 0 64 64" width="512" height="512"><path d="M5,23.41992a1,1,0,0,0,1-1V11a5.00588,5.00588,0,0,1,5-5H22.41992a1,1,0,0,0,0-2H11a7.00787,7.00787,0,0,0-7,7V22.41992A1,1,0,0,0,5,23.41992Z"/><path d="M59,40.58008a1,1,0,0,0-1,1V53a5.00588,5.00588,0,0,1-5,5H41.58008a1,1,0,0,0,0,2H53a7.00787,7.00787,0,0,0,7-7V41.58008A1,1,0,0,0,59,40.58008Z"/><path d="M22.41992,58H11a5.00588,5.00588,0,0,1-5-5V41.58008a1,1,0,0,0-2,0V53a7.00787,7.00787,0,0,0,7,7H22.41992a1,1,0,1,0,0-2Z"/><path d="M53,4H41.58008a1,1,0,0,0,0,2H53a5.00588,5.00588,0,0,1,5,5V22.41992a1,1,0,1,0,2,0V11A7.00787,7.00787,0,0,0,53,4Z"/><path d="M21.20264,21.0752a.99989.99989,0,1,0-1.41407,1.41406l7.80957,7.80957A2.3804,2.3804,0,0,1,28.07629,31H7.71216a1.00012,1.00012,0,0,0,0,2H28.07629a2.3804,2.3804,0,0,1-.47815.70117l-7.80957,7.80957a.99989.99989,0,1,0,1.41407,1.41406l7.80957-7.80957a4.41054,4.41054,0,0,0,0-6.23046Z"/><path d="M43.50439,43.21777a1,1,0,0,0,.707-1.707l-7.80957-7.80957A2.38019,2.38019,0,0,1,35.92377,33H56.27246a1,1,0,0,0,0-2H35.92377a2.38019,2.38019,0,0,1,.47809-.70117l7.80957-7.80957a.99989.99989,0,1,0-1.41407-1.41406l-7.80957,7.80957a4.41054,4.41054,0,0,0,0,6.23046l7.80957,7.80957A.99676.99676,0,0,0,43.50439,43.21777Z"/></svg>
