<?xml version="1.0" encoding="utf-8"?>
<!-- Generator: Adobe Illustrator 27.5.0, SVG Export Plug-In . SVG Version: 6.00 Build 0)  -->
<svg version="1.1" id="Layer_1" xmlns="http://www.w3.org/2000/svg" xmlns:xlink="http://www.w3.org/1999/xlink" x="0px" y="0px"
	 viewBox="0 0 4000 4000" style="enable-background:new 0 0 4000 4000;" xml:space="preserve">
<rect y="0" style="fill:#FFFFFF;" width="4000" height="4000"/>
<g>
	<path d="M2801.048,1730.838h-531.885v-531.885c0-164.843-134.111-298.954-298.954-298.954h-771.256
		C1034.111,900,900,1034.111,900,1198.954v771.256c0,164.843,134.111,298.954,298.954,298.954h531.885v531.885
		c0,164.845,134.109,298.952,298.952,298.952h771.258c164.845,0,298.952-134.107,298.952-298.952V2029.79
		C3100,1864.947,2965.893,1730.838,2801.048,1730.838z M981.961,1970.21v-771.256c0-119.651,97.342-216.993,216.993-216.993h771.256
		c119.651,0,216.996,97.342,216.996,216.993v531.885H2029.79c-164.843,0-298.952,134.109-298.952,298.952v157.416h-531.885
		C1079.303,2187.206,981.961,2089.86,981.961,1970.21z M2187.206,1812.799v157.411c0,119.651-97.345,216.996-216.996,216.996
		h-157.411V2029.79c0-119.649,97.342-216.991,216.991-216.991H2187.206z M3018.042,2801.048
		c0,119.649-97.345,216.994-216.994,216.994H2029.79c-119.649,0-216.991-97.345-216.991-216.994v-531.885h157.411
		c164.843,0,298.954-134.111,298.954-298.954v-157.411h531.885c119.649,0,216.994,97.342,216.994,216.991V2801.048z"/>
	<path d="M1562.407,1375.105l5.633,138.475l-413.25-381.164c-16.634-15.347-42.565-14.294-57.907,2.338
		c-15.345,16.637-14.299,42.563,2.338,57.907l413.251,381.164l-138.478,5.552l86.725,79.992l196.342-7.931l-7.929-196.342
		L1562.407,1375.105z"/>
	<path d="M2485.503,2459.683l138.473-5.552l-86.725-79.991l-196.342,7.931l7.929,196.343l86.725,79.991l-5.634-138.476
		l413.25,381.165c7.88,7.267,17.84,10.858,27.775,10.858c11.042,0,22.054-4.439,30.134-13.198
		c15.344-16.636,14.296-42.562-2.34-57.909L2485.503,2459.683z"/>
</g>
</svg>
