<?xml version="1.0" encoding="UTF-8" standalone="no"?>
<!-- Created with Inkscape (http://www.inkscape.org/) -->

<svg
   version="1.1"
   id="svg489"
   xml:space="preserve"
   width="682.66669"
   height="682.66669"
   viewBox="0 0 682.66669 682.66669"
   xmlns="http://www.w3.org/2000/svg"
   xmlns:svg="http://www.w3.org/2000/svg"><defs
     id="defs493"><clipPath
       clipPathUnits="userSpaceOnUse"
       id="clipPath503"><path
         d="M 0,512 H 512 V 0 H 0 Z"
         id="path501" /></clipPath></defs><g
     id="g495"
     transform="matrix(1.3333333,0,0,-1.3333333,0,682.66667)"><g
       id="g497"><g
         id="g499"
         clip-path="url(#clipPath503)"><g
           id="g505"
           transform="translate(76,97)"><path
             d="m 0,0 v -52 c 0,-16.568 13.432,-30 30,-30 h 300 c 16.568,0 30,13.432 30,30 V 0"
             style="fill:none;stroke:#000000;stroke-width:30;stroke-linecap:round;stroke-linejoin:round;stroke-miterlimit:10;stroke-dasharray:none;stroke-opacity:1"
             id="path507" /></g><g
           id="g509"
           transform="translate(436,297)"><path
             d="m 0,0 v 80 l -120,120 h -210 c -16.568,0 -30,-13.432 -30,-30 V 0"
             style="fill:none;stroke:#000000;stroke-width:30;stroke-linecap:round;stroke-linejoin:round;stroke-miterlimit:10;stroke-dasharray:none;stroke-opacity:1"
             id="path511" /></g><g
           id="g513"
           transform="translate(316,497)"><path
             d="m 0,0 v -90 c 0,-16.568 13.432,-30 30,-30 h 90 z"
             style="fill:none;stroke:#000000;stroke-width:30;stroke-linecap:round;stroke-linejoin:round;stroke-miterlimit:10;stroke-dasharray:none;stroke-opacity:1"
             id="path515" /></g><g
           id="g517"
           transform="translate(436,97)"><path
             d="m 0,0 h -360 c -16.568,0 -30,13.432 -30,30 v 140 c 0,16.568 13.432,30 30,30 H 0 c 16.568,0 30,-13.432 30,-30 V 30 C 30,13.432 16.568,0 0,0 Z"
             style="fill:none;stroke:#000000;stroke-width:30;stroke-linecap:round;stroke-linejoin:round;stroke-miterlimit:10;stroke-dasharray:none;stroke-opacity:1"
             id="path519" /></g><g
           id="g521"
           transform="translate(315.2056,238.4609)"><path
             d="m 0,0 c -7.979,5.392 -17.601,8.539 -27.956,8.539 -27.613,0 -49.999,-22.386 -49.999,-49.999 0,-27.615 22.386,-50.001 49.999,-50.001 11.216,0 20.44,3.692 27.442,9.928 1.449,1.29 2.802,2.69 4.058,4.187"
             style="fill:none;stroke:#000000;stroke-width:20;stroke-linecap:round;stroke-linejoin:round;stroke-miterlimit:10;stroke-dasharray:none;stroke-opacity:1"
             id="path523" /></g><g
           id="g525"
           transform="translate(367.9932,194.7275)"><path
             d="M 0,0 42.007,-47.728"
             style="fill:none;stroke:#000000;stroke-width:20;stroke-linecap:round;stroke-linejoin:round;stroke-miterlimit:10;stroke-dasharray:none;stroke-opacity:1"
             id="path527" /></g><g
           id="g529"
           transform="translate(355.9346,247)"><path
             d="M 0,0 V -100"
             style="fill:none;stroke:#000000;stroke-width:20;stroke-linecap:round;stroke-linejoin:round;stroke-miterlimit:10;stroke-dasharray:none;stroke-opacity:1"
             id="path531" /></g><g
           id="g533"
           transform="translate(410,221.0107)"><path
             d="m 0,0 c 0,-14.353 -12.586,-25.988 -27.459,-25.988 -7.377,0 -26.389,-0.116 -26.389,-0.116 0,0 -0.119,18.869 -0.119,26.104 0,5.942 -0.066,25.989 -0.066,25.989 h 26.574 C -12.586,25.989 0,14.354 0,0 Z"
             style="fill:none;stroke:#000000;stroke-width:20;stroke-linecap:round;stroke-linejoin:round;stroke-miterlimit:10;stroke-dasharray:none;stroke-opacity:1"
             id="path535" /></g><g
           id="g537"
           transform="translate(202,196.9995)"><path
             d="m 0,0 c 0,-27.614 -22.386,-50 -50,-50 -27.614,0 -50,22.386 -50,50 0,27.615 22.386,50 50,50 C -22.386,50 0,27.615 0,0 Z"
             style="fill:none;stroke:#000000;stroke-width:20;stroke-linecap:round;stroke-linejoin:round;stroke-miterlimit:10;stroke-dasharray:none;stroke-opacity:1"
             id="path539" /></g><g
           id="g541"
           transform="translate(136,377)"><path
             d="M 0,0 H 120"
             style="fill:none;stroke:#000000;stroke-width:30;stroke-linecap:round;stroke-linejoin:round;stroke-miterlimit:10;stroke-dasharray:none;stroke-opacity:1"
             id="path543" /></g><g
           id="g545"
           transform="translate(136,437)"><path
             d="M 0,0 H 120"
             style="fill:none;stroke:#000000;stroke-width:30;stroke-linecap:round;stroke-linejoin:round;stroke-miterlimit:10;stroke-dasharray:none;stroke-opacity:1"
             id="path547" /></g></g></g></g></svg>
