<svg id="Glyph" enable-background="new 0 0 48 48" viewBox="0 0 48 48" xmlns="http://www.w3.org/2000/svg"><g><path d="m38.6914 16.71129c-.0378-.09028-.09293-.17331-.16265-.2426l-6.99872-6.99872c-.14002-.14001-.33002-.21997-.53003-.21997h-13c-1.51996 0-2.75 1.22998-2.75 2.75v4.25h-2.75c-1.79199 0-3.25 1.45801-3.25 3.25v11.5c0 1.5166 1.2334 2.75 2.75 2.75h20c1.5166 0 2.75-1.2334 2.75-2.75v-7c0-1.5166-1.2334-2.75-2.75-2.75h-15.25v-9.25c0-.69.56-1.25 1.25-1.25h12.25v6.25c0 .41406.33594.75.75.75h6.25v18.25c0 .69-.56 1.25-1.25 1.25h-18c-.69 0-1.25-.56-1.25-1.25v-.75h-1.5v.75c0 1.51996 1.23004 2.75 2.75 2.75h18c1.52002 0 2.75-1.23004 2.75-2.75v-19c0-.0992-.02048-.19765-.0586-.28871zm-11.4414 8.28871c0-.41406.33594-.75.75-.75h1.5c1.24072 0 2.25 1.00928 2.25 2.25 0 .75787-.37921 1.42615-.95508 1.83405l.83008 1.2514c.229.34521.13477.81055-.21045 1.03955-.12744.08447-.27148.125-.41406.125-.24268 0-.48096-.11768-.62549-.33545l-1.10406-1.66455h-.52094v1.25c0 .41406-.33594.75-.75.75s-.75-.33594-.75-.75zm-3.75-.75c.70312 0 1.39648.23145 1.95215.65186.33057.24951.396.72021.146 1.05029-.25.33057-.7207.396-1.05029.146-.29737-.22461-.66944-.34815-1.04786-.34815-.96484 0-1.75.78516-1.75 1.75s.78516 1.75 1.75 1.75c.37842 0 .75049-.12354 1.04785-.34814.3291-.25049.79932-.18555 1.05029.146.25.33008.18457.80078-.146 1.05029-.55566.4204-1.24902.65185-1.95214.65185-1.79199 0-3.25-1.45801-3.25-3.25s1.45801-3.25 3.25-3.25zm-4.75 3.25c0 1.79199-1.45801 3.25-3.25 3.25s-3.25-1.45801-3.25-3.25 1.45801-3.25 3.25-3.25 3.25 1.45801 3.25 3.25zm-6.25-6.25c-.95681 0-1.75-.79547-1.75-1.75 0-.96484.78516-1.75 1.75-1.75h2.75v3.5s-2.74612 0-2.75 0z"/><path d="m27 12.25h-7c-.41406 0-.75.33594-.75.75s.33594.75.75.75h7c.41406 0 .75-.33594.75-.75s-.33594-.75-.75-.75z"/><path d="m27 15.25h-7c-.41406 0-.75.33594-.75.75s.33594.75.75.75h7c.41406 0 .75-.33594.75-.75s-.33594-.75-.75-.75z"/><path d="m29.50537 27.2489c.0105-.0022.02032-.00446.03088-.00623.39582-.02001.71375-.34197.71375-.74267 0-.41357-.33643-.75-.75-.75h-.75v1.5h.75c.00189 0 .00348-.0011.00537-.0011z"/><circle cx="15.5" cy="27.5" r="1.75"/></g></svg>