<svg id="_x31_" enable-background="new 0 0 24 24" viewBox="0 0 24 24" xmlns="http://www.w3.org/2000/svg"><path d="m17.003 9.996c-.001 0-.001 0-.002 0-2.757-.001-4.999-2.246-4.998-5.002.001-1.335.521-2.591 1.466-3.535.944-.943 2.199-1.462 3.533-1.462h.003c1.335 0 2.591.521 3.535 1.466s1.463 2.201 1.462 3.537c0 1.335-.521 2.591-1.466 3.535-.943.941-2.198 1.461-3.533 1.461zm-4-5.003c-.001 2.206 1.793 4.001 3.999 4.002h.001c1.067 0 2.072-.416 2.827-1.17.756-.755 1.172-1.759 1.173-2.828 0-1.069-.415-2.073-1.17-2.829s-1.759-1.172-2.828-1.173c-.001 0-.002 0-.002 0-2.204.001-3.998 1.794-4 3.998z"/><path d="m23.5 11.999c-.128 0-.256-.049-.354-.146l-3.316-3.319c-.195-.195-.195-.512 0-.707s.512-.195.707 0l3.316 3.319c.195.195.195.512 0 .707-.097.097-.225.146-.353.146z"/><path d="m15 21c-.276 0-.5-.224-.5-.5v-5c0-.276.224-.5.5-.5s.5.224.5.5v5c0 .276-.224.5-.5.5z"/><path d="m16.5 16h-3c-.276 0-.5-.224-.5-.5s.224-.5.5-.5h3c.276 0 .5.224.5.5s-.224.5-.5.5z"/><path d="m5 21c-.276 0-.5-.224-.5-.5v-5c0-.276.224-.5.5-.5s.5.224.5.5v5c0 .276-.224.5-.5.5z"/><path d="m6.5 16h-3c-.276 0-.5-.224-.5-.5s.224-.5.5-.5h3c.276 0 .5.224.5.5s-.224.5-.5.5z"/><path d="m11.5 21c-.17 0-.335-.087-.429-.243l-3-5c-.142-.236-.065-.544.171-.686.237-.144.544-.065.686.172l3 5c.142.236.065.544-.171.686-.08.049-.169.071-.257.071z"/><path d="m8.5 21c-.087 0-.176-.022-.257-.071-.237-.142-.313-.449-.171-.686l3-5c.142-.237.449-.315.686-.172.237.142.313.449.171.686l-3 5c-.094.156-.26.243-.429.243z"/><path d="m17.5 24h-15c-1.378 0-2.5-1.121-2.5-2.5v-19c0-1.378 1.122-2.5 2.5-2.5h7c.276 0 .5.224.5.5s-.224.5-.5.5h-7c-.827 0-1.5.673-1.5 1.5v19c0 .827.673 1.5 1.5 1.5h15c.827 0 1.5-.673 1.5-1.5v-6c0-.276.224-.5.5-.5s.5.224.5.5v6c0 1.379-1.122 2.5-2.5 2.5z"/></svg>