<svg id="Layer_1" enable-background="new 0 0 512 512" height="512" viewBox="0 0 512 512" width="512" xmlns="http://www.w3.org/2000/svg"><path d="m493.229 150.654-148.28-148.309c-1.499-1.5-3.533-2.343-5.653-2.343h-167.952c-39.091 0-70.895 31.804-70.895 70.896v140.314h-62.221c-12.02 0-21.798 9.779-21.798 21.799v125.319c0 12.02 9.779 21.799 21.798 21.799h62.221v60.973c0 39.092 31.803 70.896 70.895 70.896h253.332c39.091 0 70.895-31.804 70.895-70.896v-284.797c-.001-2.12-.843-4.152-2.342-5.651zm-145.939-123.356 120.99 121.013h-112.997c-4.408 0-7.994-3.599-7.994-8.021v-112.992zm-314.873 331.033v-125.32c0-3.149 2.661-5.811 5.811-5.811h341.603c3.205 0 5.812 2.606 5.812 5.811v125.319c0 3.204-2.607 5.811-5.812 5.811h-341.603c-3.15 0-5.811-2.66-5.811-5.81zm392.259 137.678h-253.332c-30.276 0-54.907-24.631-54.907-54.907v-60.973h263.395c12.02 0 21.799-9.779 21.799-21.799v-125.319c0-12.02-9.779-21.799-21.799-21.799h-263.396v-140.314c0-30.276 24.631-54.907 54.907-54.907h159.959v124.299c0 13.239 10.758 24.01 23.981 24.01h124.299v276.803c.001 30.275-24.631 54.906-54.906 54.906zm-300.501-251.234h-25.767c-4.415 0-7.994 3.579-7.994 7.994v42.265 10.374 33.166c0 4.415 3.579 7.994 7.994 7.994s7.994-3.579 7.994-7.994v-25.172h17.773c18.616 0 33.76-15.146 33.76-33.761v-1.077c0-18.631-15.144-33.789-33.76-33.789zm17.773 34.866c0 9.8-7.973 17.772-17.773 17.772h-17.773v-2.38-34.271h17.773c9.8 0 17.773 7.985 17.773 17.801zm100.771-26.872v85.805c0 3.593-2.396 6.743-5.858 7.703-.708.196-1.426.291-2.136.291-2.755 0-5.381-1.43-6.852-3.879l-36.688-61.085v56.97c0 4.415-3.579 7.994-7.994 7.994s-7.994-3.579-7.994-7.994v-85.805c0-3.593 2.396-6.743 5.858-7.703 3.458-.959 7.138.508 8.988 3.588l36.688 61.085v-56.97c0-4.415 3.579-7.994 7.994-7.994s7.994 3.579 7.994 7.994zm33.393 14.116v57.571c0 3.377 2.747 6.123 6.123 6.123h23.329c3.304 0 6.095-2.804 6.095-6.123v-16.836h-17.773c-4.415 0-7.994-3.579-7.994-7.994s3.579-7.994 7.994-7.994h25.767c3.587 0 6.622 2.363 7.634 5.617.234.751.359 1.549.359 2.377v24.831c0 12.192-9.906 22.111-22.082 22.111h-23.329c-12.192 0-22.11-9.919-22.11-22.111v-57.571c0-12.191 9.918-22.11 22.11-22.11h23.329c12.176 0 22.082 9.919 22.082 22.11 0 4.415-3.579 7.994-7.994 7.994s-7.994-3.579-7.994-7.994c0-3.318-2.791-6.122-6.095-6.122h-23.329c-3.376-.001-6.122 2.745-6.122 6.121z"/></svg>