<?xml version="1.0"?>
<svg xmlns="http://www.w3.org/2000/svg" viewBox="0 0 24 24"><title/><path d="M15,8V5.5a.49827.49827,0,0,0-.14709-.35413L10.85413,1.14709A.49827.49827,0,0,0,10.5,1H3A2.002,2.002,0,0,0,1,3V18a2.00339,2.00339,0,0,0,1.3335,1.88623.51338.51338,0,0,0,.16308.02832L3,19.91815V11A3.00328,3.00328,0,0,1,6,8ZM11,4V2.707L13.293,5H12A1.0013,1.0013,0,0,1,11,4Z"/><path d="M22.85291,13.14587,18.85413,9.14709A.49827.49827,0,0,0,18.5,9H6a2.002,2.002,0,0,0-2,2V21a2.002,2.002,0,0,0,2,2H21a2.002,2.002,0,0,0,2-2V13.5A.49827.49827,0,0,0,22.85291,13.14587ZM20,13a1.0013,1.0013,0,0,1-1-1V10.707L21.293,13Z"/><path d="M17.4917,2.93408a.50021.50021,0,0,0,.73633-.65625A5.52781,5.52781,0,0,1,21.72217,5.772a.50021.50021,0,0,0-.65625.73633l1.04346,1.3042A.50024.50024,0,0,0,23,7.5,6.50753,6.50753,0,0,0,16.5,1a.50024.50024,0,0,0-.31251.89062Z"/></svg>
