<svg id="glipy3" height="512" viewBox="0 0 64 64" width="512" xmlns="http://www.w3.org/2000/svg"><path d="m46.93256 55a1 1 0 0 0 -1 1v1.06982a.93149.93149 0 0 1 -.93018.93018h-34.71973a.93149.93149 0 0 1 -.93017-.93018v-50.13964a.93149.93149 0 0 1 .93017-.93018h17.21973a1.00013 1.00013 0 0 0 -.00006-2h-17.21967a2.93347 2.93347 0 0 0 -2.93017 2.93018v50.13964a2.93347 2.93347 0 0 0 2.93017 2.93018h34.71973a2.93348 2.93348 0 0 0 2.93018-2.93018c-.00116-.85516.18335-2.00708-1-2.06982z"/><path d="m52.64752 31h-4.71v-10.57a1.017 1.017 0 0 0 -.3-.71l-15.43-15.43a1.01315 1.01315 0 0 0 -1.71.71008v13.49992a2.94055 2.94055 0 0 0 2.93 2.93h12.51v9.57h-23.29a3.99887 3.99887 0 0 0 -4 4v14a3.99891 3.99891 0 0 0 4 4h30a4.00537 4.00537 0 0 0 4-4v-14a4.00533 4.00533 0 0 0 -4-4zm-21.63006 16.77991-4.61994-3.7v2.92009a1 1 0 0 1 -2 0v-10a.99654.99654 0 0 1 1-1h3.75a3.50023 3.50023 0 0 1 -.00012 7h-.8999l4.02 3.22a.9997.9997 0 0 1 -1.25004 1.55991zm9.75006-9.77991h-2.12v9a1.00011 1.00011 0 0 1 -2-.00006v-8.99994h-2.13a1.00012 1.00012 0 0 1 .00006-2h6.24994a1.0002 1.0002 0 0 1 0 2zm9.13 0h-5.25v3h4.25a1.00011 1.00011 0 0 1 -.00006 2h-4.24994v4a1.00011 1.00011 0 0 1 -2-.00006v-8.99994a1.99939 1.99939 0 0 1 2-2h5.25a1.0002 1.0002 0 0 1 0 2z"/><path d="m30.64752 39.5a1.50442 1.50442 0 0 0 -1.5-1.5h-2.75v3h2.75a1.50446 1.50446 0 0 0 1.5-1.5z"/></svg>