<?xml version="1.0" encoding="utf-8"?>
<!-- Generator: Adobe Illustrator 27.5.0, SVG Export Plug-In . SVG Version: 6.00 Build 0)  -->
<svg version="1.1" id="Layer_1" xmlns="http://www.w3.org/2000/svg" xmlns:xlink="http://www.w3.org/1999/xlink" x="0px" y="0px"
	 viewBox="0 0 1920 1080" style="enable-background:new 0 0 1920 1080;" xml:space="preserve">
<g>
	<path style="fill-rule:evenodd;clip-rule:evenodd;" d="M777.139-137h364.17c52.087,0,94.703,42.616,94.703,94.703v595.558
		c0,52.087-42.616,94.703-94.703,94.703h-364.17c-52.087,0-94.703-42.616-94.703-94.703V-42.297
		C682.436-94.384,725.052-137,777.139-137L777.139-137z M833.278,8.472h251.892c10.203,0,18.551,8.347,18.551,18.55
		s-8.347,18.55-18.551,18.55H833.278c-10.203,0-18.55-8.348-18.55-18.55S823.075,8.472,833.278,8.472L833.278,8.472z M765.75,78.767
		h386.95c10.203,0,18.551,8.348,18.551,18.55c0,10.203-8.348,18.55-18.551,18.55H765.75c-10.203,0-18.55-8.348-18.55-18.55
		C747.199,87.115,755.547,78.767,765.75,78.767L765.75,78.767z M728.649,143.205H1189.8c10.203,0,18.55,8.347,18.55,18.55
		c0,10.203-8.347,18.55-18.55,18.55H728.649c-10.203,0-18.55-8.347-18.55-18.55C710.099,151.552,718.446,143.205,728.649,143.205
		L728.649,143.205z M755.986,207.642h406.477c10.202,0,18.55,8.348,18.55,18.55c0,10.203-8.347,18.55-18.55,18.55H755.986
		c-10.203,0-18.55-8.347-18.55-18.55C737.436,215.99,745.783,207.642,755.986,207.642L755.986,207.642z M783.323,272.079h351.803
		c10.203,0,18.55,8.347,18.55,18.55s-8.347,18.551-18.55,18.551H783.323c-10.203,0-18.55-8.348-18.55-18.551
		S773.12,272.079,783.323,272.079L783.323,272.079z M810.661,336.517h297.129c10.203,0,18.55,8.347,18.55,18.55
		c0,10.203-8.347,18.55-18.55,18.55H810.661c-10.203,0-18.551-8.347-18.551-18.55C792.11,344.864,800.457,336.517,810.661,336.517
		L810.661,336.517z M837.997,400.954h242.454c10.203,0,18.55,8.348,18.55,18.55c0,10.203-8.347,18.55-18.55,18.55H837.997
		c-10.202,0-18.55-8.347-18.55-18.55C819.447,409.302,827.795,400.954,837.997,400.954L837.997,400.954z M865.334,465.392h187.78
		c10.203,0,18.55,8.347,18.55,18.55c0,10.203-8.347,18.55-18.55,18.55h-187.78c-10.203,0-18.55-8.348-18.55-18.55
		C846.784,473.739,855.132,465.392,865.334,465.392L865.334,465.392z"/>
	<path style="fill-rule:evenodd;clip-rule:evenodd;" d="M453.465,227.901h193.288v40.143H453.465
		c-41.898,0-76.321,34.424-76.321,76.321v561.02c0,41.897,34.424,76.321,76.321,76.321h1011.52
		c41.898,0,76.321-34.424,76.321-76.321v-561.02c0-41.898-34.424-76.321-76.321-76.321h-25.664v-40.143h25.664
		c64.056,0,116.465,52.409,116.465,116.464v561.02c0,64.056-52.409,116.464-116.465,116.464h-324.37v195.268h-362.78V1021.85
		h-324.37C389.409,1021.85,337,969.441,337,905.386v-561.02C337,280.31,389.409,227.901,453.465,227.901L453.465,227.901z"/>
	<polygon points="1312.446,177.762 1312.446,373.36 1266.189,373.36 1358.702,568.958 1451.214,373.36 1404.958,373.36 
		1404.958,177.762 1312.446,177.762 	"/>
</g>
</svg>
