<svg id="Layer_1" enable-background="new 0 0 512 512" height="512" viewBox="0 0 512 512" width="512" xmlns="http://www.w3.org/2000/svg"><path d="m493.229 150.654-148.28-148.309c-1.5-1.5-3.533-2.343-5.653-2.343h-167.952c-39.092 0-70.895 31.804-70.895 70.896v140.314h-62.22c-12.02 0-21.798 9.779-21.798 21.799v125.319c0 12.02 9.779 21.799 21.798 21.799h62.22v60.973c0 39.092 31.803 70.896 70.895 70.896h253.332c39.091 0 70.895-31.804 70.895-70.896v-284.797c-.001-2.12-.844-4.152-2.342-5.651zm-145.939-123.356 120.99 121.013h-112.997c-4.407 0-7.993-3.599-7.993-8.021zm-314.873 331.033v-125.32c0-3.204 2.607-5.811 5.811-5.811h341.604c3.204 0 5.811 2.606 5.811 5.811v125.319c0 3.204-2.606 5.811-5.811 5.811h-341.604c-3.204 0-5.811-2.606-5.811-5.81zm392.259 137.678h-253.332c-30.276 0-54.908-24.631-54.908-54.907v-60.973h263.396c12.02 0 21.799-9.779 21.799-21.799v-125.319c0-12.02-9.779-21.799-21.799-21.799h-263.396v-140.314c0-30.276 24.631-54.907 54.908-54.907h159.958v124.299c0 13.239 10.758 24.01 23.981 24.01h124.299v276.803c0 30.275-24.631 54.906-54.906 54.906zm-240.463-243.24c0 4.415-3.579 7.994-7.994 7.994h-17.772v77.811c0 4.415-3.579 7.994-7.994 7.994s-7.994-3.579-7.994-7.994v-77.811h-17.773c-4.415 0-7.994-3.579-7.994-7.994s3.579-7.994 7.994-7.994h51.534c4.414 0 7.993 3.579 7.993 7.994zm30.982 0v85.805c0 4.415-3.579 7.994-7.994 7.994s-7.994-3.579-7.994-7.994v-85.805c0-4.415 3.579-7.994 7.994-7.994s7.994 3.579 7.994 7.994zm86.174 0c0 4.415-3.579 7.994-7.994 7.994h-43.54v22.193h37.162c4.415 0 7.994 3.579 7.994 7.994s-3.579 7.994-7.994 7.994h-37.162v39.629c0 4.415-3.579 7.994-7.994 7.994s-7.994-3.579-7.994-7.994v-85.805c0-4.415 3.579-7.994 7.994-7.994h51.534c4.415.001 7.994 3.58 7.994 7.995z"/></svg>