<?xml version="1.0" encoding="UTF-8"?>
<svg xmlns="http://www.w3.org/2000/svg" viewBox="0 0 512 512" width="512" height="512"><g id="_18-transaction_scan" data-name="18-transaction scan"><g id="linear_color" data-name="linear color"><path d="M140.292,157.757,122.161,136H224V104H122.161l18.131-21.757L115.708,61.757l-40,48a16,16,0,0,0,0,20.486l40,48Z"/><path d="M244.292,213.757l-40-48-24.584,20.486L197.839,208H96v32H197.839l-18.131,21.757,24.584,20.486,40-48A16,16,0,0,0,244.292,213.757Z"/><path d="M467.313,484.687,390.222,407.6A95.951,95.951,0,0,0,320,256.336V16A16,16,0,0,0,304,0H16A16,16,0,0,0,0,16V288a16,16,0,0,0,4.687,11.314l96,96A16,16,0,0,0,112,400H228.887A95.906,95.906,0,0,0,367.6,430.222l77.092,77.091ZM96,345.372,54.627,304H96ZM216,352a96.231,96.231,0,0,0,1.341,16H128V288a16,16,0,0,0-16-16H32V32H288V259.037A96.174,96.174,0,0,0,216,352Zm96,64a64,64,0,1,1,64-64A64.072,64.072,0,0,1,312,416Z"/></g></g></svg>
