<svg id="Layer_1" enable-background="new 0 0 512 512" height="512" viewBox="0 0 512 512" width="512" xmlns="http://www.w3.org/2000/svg"><path d="m493.229 150.654-148.28-148.309c-1.499-1.5-3.533-2.343-5.653-2.343h-167.953c-39.091 0-70.894 31.804-70.894 70.896v140.314h-62.221c-12.02 0-21.798 9.779-21.798 21.799v125.319c0 12.02 9.779 21.799 21.798 21.799h62.221v60.973c0 39.092 31.803 70.896 70.894 70.896h253.333c39.091 0 70.895-31.804 70.895-70.896v-284.797c-.001-2.12-.843-4.152-2.342-5.651zm-145.939-123.356 120.99 121.013h-112.997c-4.408 0-7.994-3.599-7.994-8.021v-112.992zm-314.873 331.033v-125.32c0-3.149 2.661-5.811 5.811-5.811h341.603c3.204 0 5.811 2.606 5.811 5.811v125.319c0 3.204-2.607 5.811-5.811 5.811h-341.603c-3.15 0-5.811-2.66-5.811-5.81zm392.259 137.678h-253.333c-30.276 0-54.907-24.631-54.907-54.907v-60.973h263.395c12.02 0 21.798-9.779 21.798-21.799v-125.319c0-12.02-9.779-21.799-21.798-21.799h-263.395v-140.314c0-30.276 24.631-54.907 54.907-54.907h159.959v124.299c0 13.239 10.758 24.01 23.981 24.01h124.299v276.803c.001 30.275-24.631 54.906-54.906 54.906zm-183.013-239.094-23.293 38.771 23.293 38.771c2.274 3.785 1.049 8.695-2.735 10.97-1.289.773-2.708 1.143-4.109 1.143-2.714 0-5.36-1.383-6.86-3.878l-18.915-31.483-18.915 31.483c-1.499 2.495-4.146 3.878-6.859 3.878-1.402 0-2.821-.369-4.109-1.143-3.784-2.274-5.009-7.185-2.735-10.97l23.293-38.771-23.293-38.771c-2.274-3.785-1.049-8.695 2.735-10.97 3.785-2.27 8.695-1.047 10.969 2.735l18.915 31.483 18.915-31.483c2.274-3.782 7.186-5.005 10.969-2.735 3.783 2.274 5.008 7.184 2.734 10.97zm-83.048-4.118c0 4.415-3.579 7.994-7.994 7.994h-17.773v77.781c0 4.415-3.579 7.994-7.994 7.994s-7.994-3.579-7.994-7.994v-77.781h-17.8c-4.415 0-7.994-3.579-7.994-7.994s3.579-7.994 7.994-7.994h51.562c4.414 0 7.993 3.579 7.993 7.994zm168.378 0c0 4.415-3.579 7.994-7.994 7.994h-17.773v77.781c0 4.415-3.579 7.994-7.994 7.994s-7.994-3.579-7.994-7.994v-77.781h-17.773c-4.415 0-7.994-3.579-7.994-7.994s3.579-7.994 7.994-7.994h51.535c4.415 0 7.993 3.579 7.993 7.994z"/></svg>