<svg id="Layer_1" viewBox="0 0 48 48" xmlns="http://www.w3.org/2000/svg"><path d="m25.538 42.886c-.342.039-.689.067-1.038.086v-9.472h4.93c.552 0 1-.448 1-1s-.448-1-1-1h-4.93v-7h9.476c-.024.858-.066 1.709-.146 2.53-.06.55.34 1.04.89 1.09.55.07 1.04-.34 1.09-.89.096-.889.142-1.805.165-2.73h6.998c-.017.338-.044.684-.079 1.042-.054.549.348 1.039.897 1.093.55.061 1.039-.347 1.093-.897.077-.784.115-1.517.115-2.238 0-11.855-9.645-21.5-21.5-21.5s-21.499 9.645-21.499 21.5 9.645 21.5 21.5 21.5c.757 0 1.518-.042 2.262-.126.548-.062.943-.557.881-1.106s-.562-.947-1.106-.881zm-3.038.017c-3.329-.617-6.251-4.274-7.948-9.403h7.948zm0-11.403h-8.529c-.543-2.166-.871-4.529-.943-7h9.472zm-18.449-7h6.972c.063 2.476.356 4.828.849 7h-6.136c-.975-2.155-1.558-4.516-1.685-7zm1.685-9h6.136c-.493 2.172-.786 4.524-.849 7h-6.972c.127-2.484.711-4.845 1.685-7zm18.764-11.403c3.329.617 6.251 4.274 7.948 9.403h-7.948zm-2 0v9.403h-7.948c1.697-5.129 4.619-8.786 7.948-9.403zm0 11.403v7h-9.472c.072-2.471.4-4.834.943-7zm2 0h8.529c.543 2.166.871 4.529.943 7h-9.472zm18.449 7h-6.972c-.063-2.476-.356-4.828-.849-7h6.136c.975 2.155 1.558 4.516 1.685 7zm-2.739-9h-5.598c-1.028-3.438-2.581-6.304-4.487-8.316 4.241 1.539 7.792 4.501 10.084 8.316zm-23.336-8.316c-1.906 2.013-3.458 4.878-4.487 8.316h-5.598c2.292-3.815 5.844-6.777 10.084-8.316zm-10.084 28.316h5.598c1.028 3.438 2.581 6.304 4.487 8.316-4.241-1.539-7.792-4.501-10.084-8.316z"/><path d="m41.21 39.088c-.39-.39-.39-1.024 0-1.414l1.768-1.768c.665-.665 1.028-1.542 1.022-2.468.006-.939-.357-1.816-1.022-2.481-1.364-1.364-3.585-1.364-4.95 0l-1.768 1.768c-.39.39-1.024.39-1.414 0s-.39-1.024 0-1.414l1.768-1.768c2.144-2.144 5.634-2.144 7.778 0 1.046 1.046 1.617 2.43 1.608 3.896.009 1.454-.562 2.837-1.608 3.883l-1.768 1.768c-.39.39-1.024.39-1.414 0z"/><path d="m29.543 44.392c-2.144-2.144-2.144-5.634 0-7.778l1.768-1.768c.39-.39 1.024-.39 1.414 0s.39 1.024 0 1.414l-1.768 1.768c-1.364 1.364-1.364 3.585 0 4.95s3.585 1.364 4.95 0l1.768-1.768c.39-.39 1.024-.39 1.414 0s.39 1.024 0 1.414l-1.768 1.768c-2.144 2.144-5.634 2.144-7.778 0z"/><path d="m32.725 41.21c-.39-.39-.39-1.024 0-1.414l7.071-7.071c.39-.39 1.024-.39 1.414 0s.39 1.024 0 1.414l-7.071 7.071c-.39.39-1.024.39-1.414 0z"/></svg>