<?xml version="1.0"?>
<svg xmlns="http://www.w3.org/2000/svg" viewBox="0 0 32 32"><g id="_12._webp_WebP_Image_Format_" data-name="12. webp (WebP Image Format)"><path d="M25.49,8.94a.64.64,0,0,0,0-.07.4.4,0,0,0-.12-.22l-6-6a.4.4,0,0,0-.22-.12l-.07,0H8A1.5,1.5,0,0,0,6.5,4V15.5H4A1.5,1.5,0,0,0,2.5,17v7A1.5,1.5,0,0,0,4,25.5H6.5V28A1.5,1.5,0,0,0,8,29.5H24A1.5,1.5,0,0,0,25.5,28V9S25.49,9,25.49,8.94Zm-1.7-.44H19.5V4.21ZM3.5,24V17a.5.5,0,0,1,.5-.5H20a.5.5,0,0,1,.5.5v7a.5.5,0,0,1-.5.5H4A.5.5,0,0,1,3.5,24ZM24,28.5H8a.5.5,0,0,1-.5-.5V25.5H20A1.5,1.5,0,0,0,21.5,24V17A1.5,1.5,0,0,0,20,15.5H7.5V4A.5.5,0,0,1,8,3.5H18.5V9a.5.5,0,0,0,.5.5h5.5V28A.5.5,0,0,1,24,28.5ZM15.5,6a.5.5,0,0,1-.5.5H9a.5.5,0,0,1,0-1h6A.5.5,0,0,1,15.5,6Zm-1,3a.5.5,0,0,1-.5.5H9a.5.5,0,0,1,0-1h5A.5.5,0,0,1,14.5,9Zm-2,3a.5.5,0,0,1-.5.5H9a.5.5,0,0,1,0-1h3A.5.5,0,0,1,12.5,12ZM7,22.92a.49.49,0,0,1-.49-.4l-.28-1.39L6,22.52a.5.5,0,0,1-.49.4.49.49,0,0,1-.49-.4l-.77-3.84a.5.5,0,0,1,.39-.59.49.49,0,0,1,.59.39l.28,1.39.28-1.39a.49.49,0,0,1,.49-.4.5.5,0,0,1,.49.4L7,19.87l.27-1.39a.5.5,0,1,1,1,.2L7.5,22.52A.51.51,0,0,1,7,22.92Zm1.8-.5V18.58a.5.5,0,0,1,.5-.5h2.31a.5.5,0,0,1,0,1H9.81V20h1.81a.5.5,0,0,1,0,1H9.81v.92h1.81a.5.5,0,0,1,0,1H9.31A.5.5,0,0,1,8.81,22.42Zm4.34.5H14.5A1.46,1.46,0,0,0,16,21.46a1.48,1.48,0,0,0-.36-1,1.48,1.48,0,0,0,.36-1,1.46,1.46,0,0,0-1.46-1.46H13.15a.5.5,0,0,0-.5.5v3.84A.5.5,0,0,0,13.15,22.92Zm.5-3.84h.85a.46.46,0,0,1,0,.92h-.85Zm0,1.92h.85a.46.46,0,0,1,0,.92h-.85ZM17,22.92a.5.5,0,0,0,.5-.5v-1h.66a1.65,1.65,0,1,0,0-3.3H17a.5.5,0,0,0-.5.5v3.84A.5.5,0,0,0,17,22.92Zm.5-3.84h.66a.65.65,0,1,1,0,1.3h-.66Z"/></g></svg>
