<svg id="Layer_1" enable-background="new 0 0 512 512" height="512" viewBox="0 0 512 512" width="512" xmlns="http://www.w3.org/2000/svg"><path d="m493.23 150.654-148.28-148.309c-1.5-1.5-3.533-2.343-5.653-2.343h-167.954c-39.091 0-70.895 31.804-70.895 70.896v140.314h-62.22c-12.021 0-21.8 9.779-21.8 21.799v125.319c0 12.02 9.779 21.799 21.8 21.799h62.22v60.973c0 39.092 31.804 70.896 70.895 70.896h253.332c39.092 0 70.896-31.804 70.896-70.896v-284.797c0-2.12-.843-4.152-2.341-5.651zm-145.939-123.356 120.989 121.013h-112.996c-4.407 0-7.993-3.599-7.993-8.021zm-314.874 331.033v-125.32c0-3.204 2.606-5.811 5.812-5.811h341.603c3.204 0 5.811 2.606 5.811 5.811v125.319c0 3.204-2.606 5.811-5.811 5.811h-341.603c-3.205 0-5.812-2.606-5.812-5.81zm392.258 137.678h-253.332c-30.275 0-54.906-24.631-54.906-54.907v-60.973h263.395c12.02 0 21.799-9.779 21.799-21.799v-125.319c0-12.02-9.779-21.799-21.799-21.799h-263.395v-140.314c0-30.276 24.631-54.907 54.906-54.907h159.959v124.299c0 13.239 10.758 24.01 23.981 24.01h124.299v276.803c.001 30.275-24.63 54.906-54.907 54.906zm-177.277-157.436c0 4.415-3.579 7.994-7.994 7.994h-51.534c-4.415 0-7.994-3.579-7.994-7.994v-85.775c0-4.415 3.579-7.994 7.994-7.994s7.994 3.579 7.994 7.994v77.781h43.54c4.415 0 7.994 3.579 7.994 7.994zm-88.364-81.658-23.293 38.771 23.293 38.771c2.273 3.785 1.049 8.695-2.735 10.97-1.289.773-2.709 1.143-4.109 1.143-2.715 0-5.36-1.383-6.86-3.878l-18.914-31.482-18.916 31.48c-1.5 2.495-4.146 3.878-6.86 3.878-1.401 0-2.82-.369-4.109-1.143-3.784-2.274-5.009-7.185-2.735-10.97l23.293-38.771-23.293-38.771c-2.273-3.785-1.049-8.695 2.735-10.97 3.788-2.273 8.696-1.047 10.97 2.735l18.914 31.482 18.914-31.482c2.275-3.782 7.185-5.005 10.97-2.735 3.784 2.276 5.008 7.186 2.735 10.972zm114.84 17.312c0 7.366 1.663 13.464 22.109 13.464 16.225 0 29.425 13.199 29.425 29.424 0 16.239-13.2 29.452-29.425 29.452h-12.756c-13.974 0-25.342-11.368-25.342-25.342 0-4.415 3.579-7.994 7.994-7.994s7.994 3.579 7.994 7.994c0 5.07 4.283 9.354 9.354 9.354h12.756c7.409 0 13.437-6.04 13.437-13.464 0-7.408-6.027-13.436-13.437-13.436-6.769 0-16.677-.492-24.531-4.74-6.188-3.348-13.566-10.352-13.566-24.712 0-16.224 13.213-29.424 29.452-29.424h12.756c13.958 0 25.314 11.355 25.314 25.313 0 4.415-3.579 7.994-7.994 7.994s-7.994-3.579-7.994-7.994c0-5.143-4.184-9.325-9.326-9.325h-12.756c-7.424.001-13.464 6.028-13.464 13.436z"/></svg>