<svg id="Layer_1" enable-background="new 0 0 512 512" height="512" viewBox="0 0 512 512" width="512" xmlns="http://www.w3.org/2000/svg"><path d="m493.229 150.654-148.28-148.308c-1.499-1.5-3.533-2.343-5.653-2.343h-167.953c-39.091 0-70.895 31.804-70.895 70.895v140.314h-62.22c-12.02 0-21.798 9.779-21.798 21.799v125.319c0 12.021 9.779 21.8 21.798 21.8h62.22v60.973c0 39.091 31.803 70.895 70.895 70.895h253.333c39.091 0 70.894-31.804 70.894-70.895v-284.797c0-2.12-.842-4.153-2.341-5.652zm-145.939-123.356 120.99 121.013h-112.997c-4.408 0-7.994-3.599-7.994-8.021v-112.992zm-314.873 331.032v-125.319c0-3.15 2.661-5.811 5.811-5.811h341.603c3.204 0 5.811 2.606 5.811 5.811v125.319c0 3.205-2.607 5.812-5.811 5.812h-341.602c-3.15 0-5.812-2.662-5.812-5.812zm392.259 137.679h-253.333c-30.276 0-54.907-24.631-54.907-54.906v-60.973h263.396c12.02 0 21.798-9.779 21.798-21.8v-125.319c0-12.02-9.779-21.799-21.798-21.799h-263.396v-140.315c0-30.275 24.631-54.906 54.907-54.906h159.959v124.299c0 13.239 10.758 24.01 23.981 24.01h124.299v276.803c.001 30.275-24.63 54.906-54.906 54.906zm-215.717-157.436c0 4.415-3.579 7.994-7.994 7.994h-51.534c-4.415 0-7.994-3.579-7.994-7.994v-85.805c0-4.415 3.579-7.994 7.994-7.994s7.994 3.579 7.994 7.994v77.811h43.54c4.415 0 7.994 3.579 7.994 7.994zm-83.544-81.689-23.295 38.787 23.295 38.787c2.273 3.784 1.048 8.695-2.737 10.968-1.288.774-2.708 1.143-4.108 1.143-2.715 0-5.361-1.383-6.86-3.88l-18.914-31.493-18.914 31.493c-1.499 2.497-4.146 3.88-6.86 3.88-1.401 0-2.819-.368-4.108-1.143-3.785-2.272-5.01-7.184-2.737-10.968l23.295-38.787-23.295-38.787c-2.273-3.784-1.048-8.695 2.737-10.968 3.785-2.275 8.696-1.048 10.968 2.737l18.914 31.493 18.914-31.493c2.273-3.785 7.183-5.013 10.968-2.737 3.784 2.272 5.01 7.184 2.737 10.968zm107.638 17.343c0 7.366 1.664 13.464 22.11 13.464 16.225 0 29.424 13.2 29.424 29.425 0 16.239-13.199 29.452-29.424 29.452h-12.756c-13.974 0-25.342-11.369-25.342-25.343 0-4.415 3.579-7.994 7.994-7.994s7.994 3.579 7.994 7.994c0 5.071 4.284 9.354 9.354 9.354h12.756c7.409 0 13.437-6.04 13.437-13.464 0-7.409-6.028-13.437-13.437-13.437-6.769 0-16.677-.492-24.531-4.74-6.189-3.347-13.566-10.352-13.566-24.712 0-16.239 13.212-29.452 29.452-29.452h12.728c13.974 0 25.342 11.368 25.342 25.342 0 4.415-3.579 7.994-7.994 7.994s-7.994-3.579-7.994-7.994c0-5.158-4.196-9.354-9.354-9.354h-12.728c-7.424.001-13.465 6.041-13.465 13.465zm124.859-17.343-23.295 38.787 23.295 38.787c2.273 3.784 1.048 8.695-2.737 10.968-1.288.774-2.708 1.143-4.108 1.143-2.715 0-5.361-1.383-6.86-3.88l-18.914-31.493-18.914 31.493c-1.499 2.497-4.146 3.88-6.86 3.88-1.401 0-2.819-.368-4.108-1.143-3.785-2.272-5.01-7.184-2.737-10.968l23.295-38.787-23.295-38.787c-2.273-3.784-1.048-8.695 2.737-10.968 3.786-2.275 8.696-1.048 10.968 2.737l18.914 31.493 18.914-31.493c2.273-3.785 7.183-5.013 10.968-2.737 3.785 2.272 5.011 7.184 2.737 10.968z"/></svg>