<svg enable-background="new 0 0 512 512" viewBox="0 0 512 512" xmlns="http://www.w3.org/2000/svg"><g id="_x32_7_Zip_File"><g><g><path d="m268.216 459.025h-29.378c-2.62 0-4.744-2.122-4.744-4.744s2.124-4.744 4.744-4.744h29.378c2.62 0 4.744 2.122 4.744 4.744s-2.124 4.744-4.744 4.744z"/></g><g><g><path d="m326.811 418.157h-20.434c-2.62 0-4.744-2.122-4.744-4.744v-40.868c0-2.622 2.124-4.744 4.744-4.744h20.434c13.883 0 25.178 11.295 25.178 25.181 0 13.88-11.295 25.175-25.178 25.175zm-15.69-9.488h15.69c8.652 0 15.69-7.038 15.69-15.688 0-8.655-7.038-15.692-15.69-15.692h-15.69z"/></g><g><path d="m306.376 459.025c-2.62 0-4.744-2.122-4.744-4.744v-40.868c0-2.622 2.124-4.744 4.744-4.744s4.744 2.122 4.744 4.744v40.868c.001 2.622-2.124 4.744-4.744 4.744z"/></g><g><path d="m205.624 459.025h-40.868c-1.645 0-3.171-.852-4.035-2.252-.864-1.399-.943-3.146-.208-4.615l37.435-74.87h-33.191c-2.62 0-4.744-2.122-4.744-4.744s2.124-4.744 4.744-4.744h40.868c1.645 0 3.171.852 4.035 2.252.864 1.399.943 3.146.208 4.615l-37.435 74.87h33.191c2.62 0 4.744 2.122 4.744 4.744s-2.124 4.744-4.744 4.744z"/></g><g><path d="m268.216 377.289h-29.378c-2.62 0-4.744-2.122-4.744-4.744s2.124-4.744 4.744-4.744h29.378c2.62 0 4.744 2.122 4.744 4.744s-2.124 4.744-4.744 4.744z"/></g><g><path d="m253.527 459.025c-2.62 0-4.744-2.122-4.744-4.744v-81.736c0-2.622 2.124-4.744 4.744-4.744s4.744 2.122 4.744 4.744v81.736c0 2.622-2.124 4.744-4.744 4.744z"/></g><path d="m343.809 14.043h-247.38c-18.657 0-33.838 15.178-33.838 33.835v281.805c-13.417 3.116-23.455 15.142-23.455 29.495v108.474c0 16.711 13.593 30.305 30.303 30.305h373.121c16.709 0 30.303-13.593 30.303-30.305v-108.474c0-14.352-10.037-26.378-23.453-29.495v-210.039c0-1.102-.554-2.518-1.39-3.354l-100.856-100.857c-.861-.859-2.338-1.39-3.355-1.39zm119.566 345.135v108.474c0 11.476-9.338 20.816-20.814 20.816h-373.122c-11.476 0-20.814-9.34-20.814-20.816v-108.474c0-11.476 9.338-20.816 20.814-20.816h373.121c11.477 0 20.815 9.34 20.815 20.816zm-23.453-30.305h-367.842v-280.995c0-13.427 10.922-24.347 24.349-24.347h45.995v19.26h-16.32c-2.62 0-4.744 2.122-4.744 4.744s2.124 4.744 4.744 4.744h16.32v22.961h-16.32c-2.62 0-4.744 2.122-4.744 4.744s2.124 4.744 4.744 4.744h16.32v22.966h-16.32c-2.62 0-4.744 2.122-4.744 4.744s2.124 4.744 4.744 4.744h16.32v28.635c-13.236 4.371-22.167 26.037-22.167 38.387 0 14.84 12.071 26.913 26.911 26.913 14.837 0 26.909-12.074 26.909-26.913 0-12.351-8.929-34.016-22.165-38.387v-28.635h16.32c2.62 0 4.744-2.122 4.744-4.744s-2.124-4.744-4.744-4.744h-16.32v-22.964h16.32c2.62 0 4.744-2.122 4.744-4.744s-2.124-4.744-4.744-4.744h-16.32v-22.962h16.32c2.62 0 4.744-2.122 4.744-4.744s-2.124-4.744-4.744-4.744h-16.32v-19.26h187.153v77.215c0 13.037 10.605 23.643 23.64 23.643h77.217zm-292.754-174.402c7.909 0 17.42 18.264 17.42 29.735 0 9.609-7.814 17.425-17.42 17.425s-17.423-7.816-17.423-17.425c.001-11.471 9.515-29.735 17.423-29.735zm201.385-124.231 84.66 84.66h-70.508c-7.804 0-14.152-6.347-14.152-14.154z"/></g></g></g><g id="Layer_1"/></svg>